<?xml version="1.0" encoding="utf-8" standalone="no"?>
<!DOCTYPE svg PUBLIC "-//W3C//DTD SVG 1.1//EN"
  "http://www.w3.org/Graphics/SVG/1.1/DTD/svg11.dtd">
<svg xmlns:xlink="http://www.w3.org/1999/xlink" width="413.37pt" height="165.1968pt" viewBox="0 0 413.37 165.1968" xmlns="http://www.w3.org/2000/svg" version="1.1">
 <metadata>
  <rdf:RDF xmlns:dc="http://purl.org/dc/elements/1.1/" xmlns:cc="http://creativecommons.org/ns#" xmlns:rdf="http://www.w3.org/1999/02/22-rdf-syntax-ns#">
   <cc:Work>
    <dc:type rdf:resource="http://purl.org/dc/dcmitype/StillImage"/>
    <dc:date>2026-07-07T07:22:02.439761</dc:date>
    <dc:format>image/svg+xml</dc:format>
    <dc:creator>
     <cc:Agent>
      <dc:title>Matplotlib v3.11.0, https://matplotlib.org/</dc:title>
     </cc:Agent>
    </dc:creator>
   </cc:Work>
  </rdf:RDF>
 </metadata>
 <defs>
  <style type="text/css">*{stroke-linejoin: round; stroke-linecap: butt}</style>
 </defs>
 <g id="figure_1">
  <g id="patch_1">
   <path d="M 0 165.1968 
L 413.37 165.1968 
L 413.37 0 
L 0 0 
z
" style="fill: #ffffff"/>
  </g>
  <g id="axes_1">
   <g id="line2d_1">
    <path d="M 119.916 145.8 
L 119.916 26.0496 
" clip-path="url(#p81891693de)" style="fill: none; stroke-dasharray: 1.8,1.35; stroke-dashoffset: 0; stroke: #718096; stroke-opacity: 0.55; stroke-width: 0.45"/>
   </g>
   <g id="line2d_2">
    <path d="M 318.564 145.8 
L 318.564 26.0496 
" clip-path="url(#p81891693de)" style="fill: none; stroke-dasharray: 1.8,1.35; stroke-dashoffset: 0; stroke: #718096; stroke-opacity: 0.55; stroke-width: 0.45"/>
   </g>
   <g id="text_1">
    <!-- Inputs -->
    <g style="fill: #4a5568" transform="translate(53.134172 18.886948) scale(0.075 -0.075)">
     <defs>
      <path id="TimesNewRomanPS-BoldMT-2c" d="M 2344 116 
L 2344 0 
L 128 0 
L 128 116 
L 269 116 
Q 453 116 566 181 
Q 647 225 691 331 
Q 725 406 725 725 
L 725 3513 
Q 725 3838 690 3919 
Q 656 4000 551 4061 
Q 447 4122 269 4122 
L 128 4122 
L 128 4238 
L 2344 4238 
L 2344 4122 
L 2203 4122 
Q 2019 4122 1906 4056 
Q 1825 4013 1778 3906 
Q 1744 3831 1744 3513 
L 1744 725 
Q 1744 400 1780 319 
Q 1816 238 1920 177 
Q 2025 116 2203 116 
L 2344 116 
z
" transform="scale(0.015625)"/>
      <path id="TimesNewRomanPS-BoldMT-51" d="M 1409 2922 
L 1409 2544 
Q 1634 2788 1840 2898 
Q 2047 3009 2284 3009 
Q 2569 3009 2756 2851 
Q 2944 2694 3006 2459 
Q 3056 2281 3056 1775 
L 3056 638 
Q 3056 300 3117 217 
Q 3178 134 3372 113 
L 3372 0 
L 1894 0 
L 1894 113 
Q 2059 134 2131 250 
Q 2181 328 2181 638 
L 2181 1938 
Q 2181 2297 2153 2390 
Q 2125 2484 2058 2536 
Q 1991 2588 1909 2588 
Q 1641 2588 1409 2203 
L 1409 638 
Q 1409 309 1470 221 
Q 1531 134 1697 113 
L 1697 0 
L 219 0 
L 219 113 
Q 403 131 481 231 
Q 534 300 534 638 
L 534 2288 
Q 534 2619 473 2700 
Q 413 2781 219 2806 
L 219 2922 
L 1409 2922 
z
" transform="scale(0.015625)"/>
      <path id="TimesNewRomanPS-BoldMT-53" d="M 1347 297 
L 1347 -791 
Q 1347 -1016 1383 -1097 
Q 1419 -1178 1494 -1215 
Q 1569 -1253 1788 -1253 
L 1788 -1369 
L 122 -1369 
L 122 -1253 
Q 316 -1247 409 -1144 
Q 472 -1072 472 -772 
L 472 2313 
Q 472 2622 400 2708 
Q 328 2794 122 2806 
L 122 2922 
L 1347 2922 
L 1347 2538 
Q 1500 2763 1659 2863 
Q 1888 3009 2156 3009 
Q 2478 3009 2742 2806 
Q 3006 2603 3143 2245 
Q 3281 1888 3281 1475 
Q 3281 1031 3139 664 
Q 2997 297 2726 104 
Q 2456 -88 2125 -88 
Q 1884 -88 1675 19 
Q 1519 100 1347 297 
z
M 1347 613 
Q 1616 231 1922 231 
Q 2091 231 2200 409 
Q 2363 672 2363 1409 
Q 2363 2166 2184 2444 
Q 2066 2628 1866 2628 
Q 1550 2628 1347 2172 
L 1347 613 
z
" transform="scale(0.015625)"/>
      <path id="TimesNewRomanPS-BoldMT-58" d="M 3038 2922 
L 3038 634 
Q 3038 300 3100 217 
Q 3163 134 3353 113 
L 3353 0 
L 2163 0 
L 2163 391 
Q 1953 141 1743 26 
Q 1534 -88 1275 -88 
Q 1028 -88 836 64 
Q 644 216 578 419 
Q 513 622 513 1128 
L 513 2288 
Q 513 2619 452 2700 
Q 391 2781 197 2806 
L 197 2922 
L 1388 2922 
L 1388 925 
Q 1388 613 1417 522 
Q 1447 431 1511 384 
Q 1575 338 1659 338 
Q 1772 338 1863 397 
Q 1988 478 2163 725 
L 2163 2288 
Q 2163 2619 2102 2700 
Q 2041 2781 1847 2806 
L 1847 2922 
L 3038 2922 
z
" transform="scale(0.015625)"/>
      <path id="TimesNewRomanPS-BoldMT-57" d="M 1375 3991 
L 1375 2922 
L 2069 2922 
L 2069 2613 
L 1375 2613 
L 1375 809 
Q 1375 556 1398 482 
Q 1422 409 1481 364 
Q 1541 319 1591 319 
Q 1794 319 1975 628 
L 2069 559 
Q 1816 -41 1247 -41 
Q 969 -41 776 114 
Q 584 269 531 459 
Q 500 566 500 1034 
L 500 2613 
L 119 2613 
L 119 2722 
Q 513 3000 789 3306 
Q 1066 3613 1272 3991 
L 1375 3991 
z
" transform="scale(0.015625)"/>
      <path id="TimesNewRomanPS-BoldMT-56" d="M 2063 3003 
L 2109 2006 
L 2003 2006 
Q 1813 2450 1608 2612 
Q 1403 2775 1200 2775 
Q 1072 2775 981 2689 
Q 891 2603 891 2491 
Q 891 2406 953 2328 
Q 1053 2200 1512 1889 
Q 1972 1578 2117 1361 
Q 2263 1144 2263 875 
Q 2263 631 2141 397 
Q 2019 163 1797 37 
Q 1575 -88 1306 -88 
Q 1097 -88 747 44 
Q 653 78 619 78 
Q 516 78 447 -78 
L 344 -78 
L 294 972 
L 400 972 
Q 541 559 786 353 
Q 1031 147 1250 147 
Q 1400 147 1495 239 
Q 1591 331 1591 463 
Q 1591 613 1497 722 
Q 1403 831 1078 1053 
Q 600 1384 459 1559 
Q 253 1816 253 2125 
Q 253 2463 486 2736 
Q 719 3009 1159 3009 
Q 1397 3009 1619 2894 
Q 1703 2847 1756 2847 
Q 1813 2847 1847 2870 
Q 1881 2894 1956 3003 
L 2063 3003 
z
" transform="scale(0.015625)"/>
     </defs>
     <use xlink:href="#TimesNewRomanPS-BoldMT-2c"/>
     <use xlink:href="#TimesNewRomanPS-BoldMT-51" transform="translate(38.921875 0)"/>
     <use xlink:href="#TimesNewRomanPS-BoldMT-53" transform="translate(94.53125 0)"/>
     <use xlink:href="#TimesNewRomanPS-BoldMT-58" transform="translate(150.140625 0)"/>
     <use xlink:href="#TimesNewRomanPS-BoldMT-57" transform="translate(205.75 0)"/>
     <use xlink:href="#TimesNewRomanPS-BoldMT-56" transform="translate(239.046875 0)"/>
    </g>
   </g>
   <g id="text_2">
    <!-- Encoding -->
    <g style="fill: #4a5568" transform="translate(204.026133 18.886948) scale(0.075 -0.075)">
     <defs>
      <path id="TimesNewRomanPS-BoldMT-28" d="M 1744 3994 
L 1744 2269 
L 1828 2269 
Q 2231 2269 2412 2522 
Q 2594 2775 2644 3269 
L 2763 3269 
L 2763 1050 
L 2644 1050 
Q 2606 1413 2486 1644 
Q 2366 1875 2206 1954 
Q 2047 2034 1744 2034 
L 1744 841 
Q 1744 491 1773 412 
Q 1803 334 1884 284 
Q 1966 234 2147 234 
L 2400 234 
Q 2994 234 3351 509 
Q 3709 784 3866 1347 
L 3981 1347 
L 3791 0 
L 128 0 
L 128 116 
L 269 116 
Q 453 116 566 181 
Q 647 225 691 331 
Q 725 406 725 725 
L 725 3513 
Q 725 3800 709 3866 
Q 678 3975 594 4034 
Q 475 4122 269 4122 
L 128 4122 
L 128 4238 
L 3675 4238 
L 3675 2984 
L 3556 2984 
Q 3466 3444 3302 3644 
Q 3138 3844 2838 3938 
Q 2663 3994 2181 3994 
L 1744 3994 
z
" transform="scale(0.015625)"/>
      <path id="TimesNewRomanPS-BoldMT-46" d="M 2600 753 
L 2697 678 
Q 2491 291 2183 101 
Q 1875 -88 1528 -88 
Q 944 -88 594 353 
Q 244 794 244 1413 
Q 244 2009 563 2463 
Q 947 3009 1622 3009 
Q 2075 3009 2342 2781 
Q 2609 2553 2609 2272 
Q 2609 2094 2501 1987 
Q 2394 1881 2219 1881 
Q 2034 1881 1914 2003 
Q 1794 2125 1766 2438 
Q 1747 2634 1675 2713 
Q 1603 2791 1506 2791 
Q 1356 2791 1250 2631 
Q 1088 2391 1088 1894 
Q 1088 1481 1219 1104 
Q 1350 728 1578 544 
Q 1750 409 1984 409 
Q 2138 409 2275 481 
Q 2413 553 2600 753 
z
" transform="scale(0.015625)"/>
      <path id="TimesNewRomanPS-BoldMT-52" d="M 1594 3009 
Q 1975 3009 2303 2812 
Q 2631 2616 2801 2253 
Q 2972 1891 2972 1459 
Q 2972 838 2656 419 
Q 2275 -88 1603 -88 
Q 944 -88 587 375 
Q 231 838 231 1447 
Q 231 2075 595 2542 
Q 959 3009 1594 3009 
z
M 1606 2788 
Q 1447 2788 1333 2667 
Q 1219 2547 1183 2192 
Q 1147 1838 1147 1206 
Q 1147 872 1191 581 
Q 1225 359 1337 243 
Q 1450 128 1594 128 
Q 1734 128 1828 206 
Q 1950 313 1991 503 
Q 2053 800 2053 1703 
Q 2053 2234 1993 2432 
Q 1934 2631 1819 2722 
Q 1738 2788 1606 2788 
z
" transform="scale(0.015625)"/>
      <path id="TimesNewRomanPS-BoldMT-47" d="M 3056 4238 
L 3056 875 
Q 3056 534 3075 472 
Q 3100 369 3170 319 
Q 3241 269 3416 256 
L 3416 153 
L 2181 -88 
L 2181 375 
Q 1959 106 1786 9 
Q 1613 -88 1394 -88 
Q 834 -88 509 413 
Q 247 819 247 1409 
Q 247 1881 409 2254 
Q 572 2628 855 2818 
Q 1138 3009 1463 3009 
Q 1672 3009 1834 2928 
Q 1997 2847 2181 2644 
L 2181 3525 
Q 2181 3859 2153 3928 
Q 2116 4019 2041 4062 
Q 1966 4106 1759 4106 
L 1759 4238 
L 3056 4238 
z
M 2181 2256 
Q 1950 2700 1616 2700 
Q 1500 2700 1425 2638 
Q 1309 2541 1236 2297 
Q 1163 2053 1163 1550 
Q 1163 997 1244 731 
Q 1325 466 1466 347 
Q 1538 288 1663 288 
Q 1938 288 2181 719 
L 2181 2256 
z
" transform="scale(0.015625)"/>
      <path id="TimesNewRomanPS-BoldMT-4c" d="M 919 4338 
Q 1122 4338 1262 4195 
Q 1403 4053 1403 3853 
Q 1403 3653 1261 3512 
Q 1119 3372 919 3372 
Q 719 3372 578 3512 
Q 438 3653 438 3853 
Q 438 4053 578 4195 
Q 719 4338 919 4338 
z
M 1356 2922 
L 1356 606 
Q 1356 297 1428 211 
Q 1500 125 1709 113 
L 1709 0 
L 131 0 
L 131 113 
Q 325 119 419 225 
Q 481 297 481 606 
L 481 2313 
Q 481 2622 409 2708 
Q 338 2794 131 2806 
L 131 2922 
L 1356 2922 
z
" transform="scale(0.015625)"/>
      <path id="TimesNewRomanPS-BoldMT-4a" d="M 2091 2888 
L 3075 2888 
L 3075 2544 
L 2516 2544 
Q 2669 2391 2728 2266 
Q 2803 2097 2803 1913 
Q 2803 1600 2629 1370 
Q 2456 1141 2157 1011 
Q 1859 881 1628 881 
Q 1609 881 1253 897 
Q 1113 897 1017 805 
Q 922 713 922 584 
Q 922 472 1008 400 
Q 1094 328 1288 328 
L 1828 334 
Q 2484 334 2731 191 
Q 3084 -9 3084 -425 
Q 3084 -691 2921 -908 
Q 2759 -1125 2494 -1228 
Q 2091 -1381 1566 -1381 
Q 1172 -1381 847 -1304 
Q 522 -1228 381 -1092 
Q 241 -956 241 -806 
Q 241 -663 348 -548 
Q 456 -434 750 -356 
Q 344 -156 344 200 
Q 344 416 509 619 
Q 675 822 1034 972 
Q 616 1125 428 1375 
Q 241 1625 241 1953 
Q 241 2381 591 2695 
Q 941 3009 1491 3009 
Q 1781 3009 2091 2888 
z
M 1550 2816 
Q 1369 2816 1244 2633 
Q 1119 2450 1119 1875 
Q 1119 1409 1242 1236 
Q 1366 1063 1534 1063 
Q 1722 1063 1847 1234 
Q 1972 1406 1972 1903 
Q 1972 2463 1831 2666 
Q 1731 2816 1550 2816 
z
M 1366 -431 
Q 1047 -431 944 -484 
Q 766 -581 766 -747 
Q 766 -906 950 -1036 
Q 1134 -1166 1644 -1166 
Q 2078 -1166 2326 -1050 
Q 2575 -934 2575 -725 
Q 2575 -647 2528 -594 
Q 2444 -500 2273 -465 
Q 2103 -431 1366 -431 
z
" transform="scale(0.015625)"/>
     </defs>
     <use xlink:href="#TimesNewRomanPS-BoldMT-28"/>
     <use xlink:href="#TimesNewRomanPS-BoldMT-51" transform="translate(66.703125 0)"/>
     <use xlink:href="#TimesNewRomanPS-BoldMT-46" transform="translate(122.3125 0)"/>
     <use xlink:href="#TimesNewRomanPS-BoldMT-52" transform="translate(166.703125 0)"/>
     <use xlink:href="#TimesNewRomanPS-BoldMT-47" transform="translate(216.703125 0)"/>
     <use xlink:href="#TimesNewRomanPS-BoldMT-4c" transform="translate(272.3125 0)"/>
     <use xlink:href="#TimesNewRomanPS-BoldMT-51" transform="translate(300.09375 0)"/>
     <use xlink:href="#TimesNewRomanPS-BoldMT-4a" transform="translate(355.703125 0)"/>
    </g>
   </g>
   <g id="text_3">
    <!-- Outputs -->
    <g style="fill: #4a5568" transform="translate(349.516313 18.886948) scale(0.075 -0.075)">
     <defs>
      <path id="TimesNewRomanPS-BoldMT-32" d="M 2472 4297 
Q 3484 4334 4117 3706 
Q 4750 3078 4750 2134 
Q 4750 1328 4278 716 
Q 3653 -97 2513 -97 
Q 1369 -97 744 678 
Q 250 1291 250 2131 
Q 250 3075 892 3704 
Q 1534 4334 2472 4297 
z
M 2509 4097 
Q 1928 4097 1625 3503 
Q 1378 3016 1378 2103 
Q 1378 1019 1759 500 
Q 2025 138 2503 138 
Q 2825 138 3041 294 
Q 3316 494 3469 933 
Q 3622 1372 3622 2078 
Q 3622 2919 3465 3336 
Q 3309 3753 3067 3925 
Q 2825 4097 2509 4097 
z
" transform="scale(0.015625)"/>
     </defs>
     <use xlink:href="#TimesNewRomanPS-BoldMT-32"/>
     <use xlink:href="#TimesNewRomanPS-BoldMT-58" transform="translate(77.78125 0)"/>
     <use xlink:href="#TimesNewRomanPS-BoldMT-57" transform="translate(133.390625 0)"/>
     <use xlink:href="#TimesNewRomanPS-BoldMT-53" transform="translate(166.6875 0)"/>
     <use xlink:href="#TimesNewRomanPS-BoldMT-58" transform="translate(222.296875 0)"/>
     <use xlink:href="#TimesNewRomanPS-BoldMT-57" transform="translate(277.90625 0)"/>
     <use xlink:href="#TimesNewRomanPS-BoldMT-56" transform="translate(311.203125 0)"/>
    </g>
   </g>
   <g id="line2d_3">
    <path d="M 114.336 115.308 
L 114.336 44.3448 
" clip-path="url(#p81891693de)" style="fill: none; stroke: #4a5568; stroke-linecap: round"/>
   </g>
   <g id="line2d_4">
    <path d="M 103.176 44.3448 
L 114.336 44.3448 
" clip-path="url(#p81891693de)" style="fill: none; stroke: #4a5568; stroke-linecap: square"/>
   </g>
   <g id="line2d_5">
    <path d="M 103.176 79.8264 
L 114.336 79.8264 
" clip-path="url(#p81891693de)" style="fill: none; stroke: #4a5568; stroke-linecap: square"/>
   </g>
   <g id="line2d_6">
    <path d="M 103.176 115.308 
L 114.336 115.308 
" clip-path="url(#p81891693de)" style="fill: none; stroke: #4a5568; stroke-linecap: square"/>
   </g>
   <g id="patch_2">
    <path d="M 114.336 44.3448 
Q 120.589387 44.3448 125.72474 44.3448 
" clip-path="url(#p81891693de)" style="fill: none; stroke: #4a5568; stroke-linecap: round"/>
    <path d="M 120.92474 41.9448 
L 125.72474 44.3448 
L 120.92474 46.7448 
z
" clip-path="url(#p81891693de)" style="fill: #4a5568; stroke: #4a5568; stroke-linecap: round"/>
   </g>
   <g id="line2d_7">
    <path d="M 114.336 115.308 
L 114.336 88.6968 
" clip-path="url(#p81891693de)" style="fill: none; stroke: #4a5568; stroke-linecap: round"/>
   </g>
   <g id="patch_3">
    <path d="M 114.336 88.6968 
Q 120.589387 88.6968 125.72474 88.6968 
" clip-path="url(#p81891693de)" style="fill: none; stroke: #4a5568; stroke-linecap: round"/>
    <path d="M 120.92474 86.2968 
L 125.72474 88.6968 
L 120.92474 91.0968 
z
" clip-path="url(#p81891693de)" style="fill: #4a5568; stroke: #4a5568; stroke-linecap: round"/>
   </g>
   <g id="line2d_8">
    <path d="M 189.666 57.096 
L 189.666 118.08 
" clip-path="url(#p81891693de)" style="fill: none; stroke: #4a5568; stroke-linecap: round"/>
   </g>
   <g id="line2d_9">
    <path d="M 189.666 118.08 
L 169.578 118.08 
" clip-path="url(#p81891693de)" style="fill: none; stroke: #4a5568; stroke-linecap: round"/>
   </g>
   <g id="patch_4">
    <path d="M 169.578 118.08 
Q 169.578 98.011898 169.578 79.061829 
" clip-path="url(#p81891693de)" style="fill: none; stroke: #4a5568; stroke-linecap: round"/>
    <path d="M 167.178 83.861829 
L 169.578 79.061829 
L 171.978 83.861829 
z
" clip-path="url(#p81891693de)" style="fill: #4a5568; stroke: #4a5568; stroke-linecap: round"/>
   </g>
   <g id="line2d_10">
    <path d="M 247.698 57.096 
L 247.698 118.08 
" clip-path="url(#p81891693de)" style="fill: none; stroke: #4a5568; stroke-linecap: round"/>
   </g>
   <g id="line2d_11">
    <path d="M 247.698 118.08 
L 267.786 118.08 
" clip-path="url(#p81891693de)" style="fill: none; stroke: #4a5568; stroke-linecap: round"/>
   </g>
   <g id="patch_5">
    <path d="M 267.786 118.08 
Q 267.786 98.011898 267.786 79.061829 
" clip-path="url(#p81891693de)" style="fill: none; stroke: #4a5568; stroke-linecap: round"/>
    <path d="M 265.386 83.861829 
L 267.786 79.061829 
L 270.186 83.861829 
z
" clip-path="url(#p81891693de)" style="fill: #4a5568; stroke: #4a5568; stroke-linecap: round"/>
   </g>
   <g id="line2d_12">
    <path d="M 169.578 101.448 
L 169.578 122.5152 
" clip-path="url(#p81891693de)" style="fill: none; stroke: #4a5568; stroke-linecap: round"/>
   </g>
   <g id="line2d_13">
    <path d="M 169.578 122.5152 
L 192.65688 122.5152 
" clip-path="url(#p81891693de)" style="fill: none; stroke: #4a5568; stroke-linecap: round"/>
   </g>
   <g id="patch_6">
    <path d="M 192.65688 122.5152 
Q 192.65688 120.187695 192.65688 118.978223 
" clip-path="url(#p81891693de)" style="fill: none; stroke: #4a5568; stroke-linecap: round"/>
    <path d="M 190.25688 123.778223 
L 192.65688 118.978223 
L 195.05688 123.778223 
z
" clip-path="url(#p81891693de)" style="fill: #4a5568; stroke: #4a5568; stroke-linecap: round"/>
   </g>
   <g id="line2d_14">
    <path d="M 267.786 101.448 
L 267.786 122.5152 
" clip-path="url(#p81891693de)" style="fill: none; stroke: #4a5568; stroke-linecap: round"/>
   </g>
   <g id="line2d_15">
    <path d="M 267.786 122.5152 
L 244.70712 122.5152 
" clip-path="url(#p81891693de)" style="fill: none; stroke: #4a5568; stroke-linecap: round"/>
   </g>
   <g id="patch_7">
    <path d="M 244.70712 122.5152 
Q 244.70712 120.187695 244.70712 118.978223 
" clip-path="url(#p81891693de)" style="fill: none; stroke: #4a5568; stroke-linecap: round"/>
    <path d="M 242.30712 123.778223 
L 244.70712 118.978223 
L 247.10712 123.778223 
z
" clip-path="url(#p81891693de)" style="fill: #4a5568; stroke: #4a5568; stroke-linecap: round"/>
   </g>
   <g id="line2d_16">
    <path d="M 277.83 128.6136 
L 315.216 128.6136 
" clip-path="url(#p81891693de)" style="fill: none; stroke: #4a5568; stroke-linecap: round"/>
   </g>
   <g id="line2d_17">
    <path d="M 315.216 128.6136 
L 315.216 55.4328 
" clip-path="url(#p81891693de)" style="fill: none; stroke: #4a5568; stroke-linecap: round"/>
   </g>
   <g id="patch_8">
    <path d="M 315.216 55.4328 
Q 321.469387 55.4328 326.60474 55.4328 
" clip-path="url(#p81891693de)" style="fill: none; stroke: #4a5568; stroke-linecap: round"/>
    <path d="M 321.80474 53.0328 
L 326.60474 55.4328 
L 321.80474 57.8328 
z
" clip-path="url(#p81891693de)" style="fill: #4a5568; stroke: #4a5568; stroke-linecap: round"/>
   </g>
   <g id="line2d_18">
    <path d="M 277.83 128.6136 
L 315.216 128.6136 
" clip-path="url(#p81891693de)" style="fill: none; stroke: #4a5568; stroke-linecap: round"/>
   </g>
   <g id="line2d_19">
    <path d="M 315.216 128.6136 
L 315.216 115.308 
" clip-path="url(#p81891693de)" style="fill: none; stroke: #4a5568; stroke-linecap: round"/>
   </g>
   <g id="patch_9">
    <path d="M 315.216 115.308 
Q 321.469387 115.308 326.60474 115.308 
" clip-path="url(#p81891693de)" style="fill: none; stroke: #4a5568; stroke-linecap: round"/>
    <path d="M 321.80474 112.908 
L 326.60474 115.308 
L 321.80474 117.708 
z
" clip-path="url(#p81891693de)" style="fill: #4a5568; stroke: #4a5568; stroke-linecap: round"/>
   </g>
   <g id="patch_10">
    <path d="M 26.451 57.9276 
L 100.665 57.9276 
Q 104.013 57.9276 104.013 54.6012 
L 104.013 34.0884 
Q 104.013 30.762 100.665 30.762 
L 26.451 30.762 
Q 23.103 30.762 23.103 34.0884 
L 23.103 54.6012 
Q 23.103 57.9276 26.451 57.9276 
z
" clip-path="url(#p81891693de)" style="fill: #ffffff; stroke: #1a202c; stroke-width: 0.75; stroke-linejoin: miter"/>
   </g>
   <g id="patch_11">
    <path d="M 26.451 93.4092 
L 100.665 93.4092 
Q 104.013 93.4092 104.013 90.0828 
L 104.013 69.57 
Q 104.013 66.2436 100.665 66.2436 
L 26.451 66.2436 
Q 23.103 66.2436 23.103 69.57 
L 23.103 90.0828 
Q 23.103 93.4092 26.451 93.4092 
z
" clip-path="url(#p81891693de)" style="fill: #ffffff; stroke: #1a202c; stroke-width: 0.75; stroke-linejoin: miter"/>
   </g>
   <g id="patch_12">
    <path d="M 26.451 128.8908 
L 100.665 128.8908 
Q 104.013 128.8908 104.013 125.5644 
L 104.013 105.0516 
Q 104.013 101.7252 100.665 101.7252 
L 26.451 101.7252 
Q 23.103 101.7252 23.103 105.0516 
L 23.103 125.5644 
Q 23.103 128.8908 26.451 128.8908 
z
" clip-path="url(#p81891693de)" style="fill: #ffffff; stroke: #1a202c; stroke-width: 0.75; stroke-linejoin: miter"/>
   </g>
   <g id="patch_13">
    <path d="M 131.355 57.9276 
L 306.009 57.9276 
Q 309.357 57.9276 309.357 54.6012 
L 309.357 34.0884 
Q 309.357 30.762 306.009 30.762 
L 131.355 30.762 
Q 128.007 30.762 128.007 34.0884 
L 128.007 54.6012 
Q 128.007 57.9276 131.355 57.9276 
z
" clip-path="url(#p81891693de)" style="fill: #ffffff; stroke: #1a202c; stroke-width: 0.75; stroke-linejoin: miter"/>
   </g>
   <g id="patch_14">
    <path d="M 131.355 102.2796 
L 207.801 102.2796 
Q 211.149 102.2796 211.149 98.9532 
L 211.149 78.4404 
Q 211.149 75.114 207.801 75.114 
L 131.355 75.114 
Q 128.007 75.114 128.007 78.4404 
L 128.007 98.9532 
Q 128.007 102.2796 131.355 102.2796 
z
" clip-path="url(#p81891693de)" style="fill: #ffffff; stroke: #1a202c; stroke-width: 0.75; stroke-linejoin: miter"/>
   </g>
   <g id="patch_15">
    <path d="M 229.563 102.2796 
L 306.009 102.2796 
Q 309.357 102.2796 309.357 98.9532 
L 309.357 78.4404 
Q 309.357 75.114 306.009 75.114 
L 229.563 75.114 
Q 226.215 75.114 226.215 78.4404 
L 226.215 98.9532 
Q 226.215 102.2796 229.563 102.2796 
z
" clip-path="url(#p81891693de)" style="fill: #ffffff; stroke: #1a202c; stroke-width: 0.75; stroke-linejoin: miter"/>
   </g>
   <g id="patch_16">
    <path d="M 162.045 142.1964 
L 275.319 142.1964 
Q 278.667 142.1964 278.667 138.87 
L 278.667 118.3572 
Q 278.667 115.0308 275.319 115.0308 
L 162.045 115.0308 
Q 158.697 115.0308 158.697 118.3572 
L 158.697 138.87 
Q 158.697 142.1964 162.045 142.1964 
z
" clip-path="url(#p81891693de)" style="fill: #ffffff; stroke: #1a202c; stroke-width: 0.75; stroke-linejoin: miter"/>
   </g>
   <g id="patch_17">
    <path d="M 332.235 69.0156 
L 393.057 69.0156 
Q 396.405 69.0156 396.405 65.6892 
L 396.405 45.1764 
Q 396.405 41.85 393.057 41.85 
L 332.235 41.85 
Q 328.887 41.85 328.887 45.1764 
L 328.887 65.6892 
Q 328.887 69.0156 332.235 69.0156 
z
" clip-path="url(#p81891693de)" style="fill: #ffffff; stroke: #1a202c; stroke-width: 0.75; stroke-linejoin: miter"/>
   </g>
   <g id="patch_18">
    <path d="M 332.235 128.8908 
L 393.057 128.8908 
Q 396.405 128.8908 396.405 125.5644 
L 396.405 105.0516 
Q 396.405 101.7252 393.057 101.7252 
L 332.235 101.7252 
Q 328.887 101.7252 328.887 105.0516 
L 328.887 125.5644 
Q 328.887 128.8908 332.235 128.8908 
z
" clip-path="url(#p81891693de)" style="fill: #ffffff; stroke: #1a202c; stroke-width: 0.75; stroke-linejoin: miter"/>
   </g>
   <g id="text_4">
    <!-- Node features -->
    <g style="fill: #1a202c" transform="translate(41.234875 43.708779) scale(0.08 -0.08)">
     <defs>
      <path id="TimesNewRomanPSMT-31" d="M -84 4238 
L 1066 4238 
L 3656 1059 
L 3656 3503 
Q 3656 3894 3569 3991 
Q 3453 4122 3203 4122 
L 3056 4122 
L 3056 4238 
L 4531 4238 
L 4531 4122 
L 4381 4122 
Q 4113 4122 4000 3959 
Q 3931 3859 3931 3503 
L 3931 -69 
L 3819 -69 
L 1025 3344 
L 1025 734 
Q 1025 344 1109 247 
Q 1228 116 1475 116 
L 1625 116 
L 1625 0 
L 150 0 
L 150 116 
L 297 116 
Q 569 116 681 278 
Q 750 378 750 734 
L 750 3681 
Q 566 3897 470 3965 
Q 375 4034 191 4094 
Q 100 4122 -84 4122 
L -84 4238 
z
" transform="scale(0.015625)"/>
      <path id="TimesNewRomanPSMT-52" d="M 1600 2947 
Q 2250 2947 2644 2453 
Q 2978 2031 2978 1484 
Q 2978 1100 2793 706 
Q 2609 313 2286 112 
Q 1963 -88 1566 -88 
Q 919 -88 538 428 
Q 216 863 216 1403 
Q 216 1797 411 2186 
Q 606 2575 925 2761 
Q 1244 2947 1600 2947 
z
M 1503 2744 
Q 1338 2744 1170 2645 
Q 1003 2547 900 2300 
Q 797 2053 797 1666 
Q 797 1041 1045 587 
Q 1294 134 1700 134 
Q 2003 134 2200 384 
Q 2397 634 2397 1244 
Q 2397 2006 2069 2444 
Q 1847 2744 1503 2744 
z
" transform="scale(0.015625)"/>
      <path id="TimesNewRomanPSMT-47" d="M 2222 322 
Q 2013 103 1813 7 
Q 1613 -88 1381 -88 
Q 913 -88 563 304 
Q 213 697 213 1313 
Q 213 1928 600 2439 
Q 988 2950 1597 2950 
Q 1975 2950 2222 2709 
L 2222 3238 
Q 2222 3728 2198 3840 
Q 2175 3953 2125 3993 
Q 2075 4034 2000 4034 
Q 1919 4034 1784 3984 
L 1744 4094 
L 2597 4444 
L 2738 4444 
L 2738 1134 
Q 2738 631 2761 520 
Q 2784 409 2836 365 
Q 2888 322 2956 322 
Q 3041 322 3181 375 
L 3216 266 
L 2366 -88 
L 2222 -88 
L 2222 322 
z
M 2222 541 
L 2222 2016 
Q 2203 2228 2109 2403 
Q 2016 2578 1861 2667 
Q 1706 2756 1559 2756 
Q 1284 2756 1069 2509 
Q 784 2184 784 1559 
Q 784 928 1059 592 
Q 1334 256 1672 256 
Q 1956 256 2222 541 
z
" transform="scale(0.015625)"/>
      <path id="TimesNewRomanPSMT-48" d="M 681 1784 
Q 678 1147 991 784 
Q 1303 422 1725 422 
Q 2006 422 2214 576 
Q 2422 731 2563 1106 
L 2659 1044 
Q 2594 616 2278 264 
Q 1963 -88 1488 -88 
Q 972 -88 605 314 
Q 238 716 238 1394 
Q 238 2128 614 2539 
Q 991 2950 1559 2950 
Q 2041 2950 2350 2633 
Q 2659 2316 2659 1784 
L 681 1784 
z
M 681 1966 
L 2006 1966 
Q 1991 2241 1941 2353 
Q 1863 2528 1708 2628 
Q 1553 2728 1384 2728 
Q 1125 2728 920 2526 
Q 716 2325 681 1966 
z
" transform="scale(0.015625)"/>
      <path id="TimesNewRomanPSMT-3" transform="scale(0.015625)"/>
      <path id="TimesNewRomanPSMT-49" d="M 1319 2638 
L 1319 756 
Q 1319 356 1406 250 
Q 1522 113 1716 113 
L 1975 113 
L 1975 0 
L 266 0 
L 266 113 
L 394 113 
Q 519 113 622 175 
Q 725 238 764 344 
Q 803 450 803 756 
L 803 2638 
L 247 2638 
L 247 2863 
L 803 2863 
L 803 3050 
Q 803 3478 940 3775 
Q 1078 4072 1361 4255 
Q 1644 4438 1997 4438 
Q 2325 4438 2600 4225 
Q 2781 4084 2781 3909 
Q 2781 3816 2700 3733 
Q 2619 3650 2525 3650 
Q 2453 3650 2373 3701 
Q 2294 3753 2178 3923 
Q 2063 4094 1966 4153 
Q 1869 4213 1750 4213 
Q 1606 4213 1506 4136 
Q 1406 4059 1362 3898 
Q 1319 3738 1319 3069 
L 1319 2863 
L 2056 2863 
L 2056 2638 
L 1319 2638 
z
" transform="scale(0.015625)"/>
      <path id="TimesNewRomanPSMT-44" d="M 1822 413 
Q 1381 72 1269 19 
Q 1100 -59 909 -59 
Q 613 -59 420 144 
Q 228 347 228 678 
Q 228 888 322 1041 
Q 450 1253 767 1440 
Q 1084 1628 1822 1897 
L 1822 2009 
Q 1822 2438 1686 2597 
Q 1550 2756 1291 2756 
Q 1094 2756 978 2650 
Q 859 2544 859 2406 
L 866 2225 
Q 866 2081 792 2003 
Q 719 1925 600 1925 
Q 484 1925 411 2006 
Q 338 2088 338 2228 
Q 338 2497 613 2722 
Q 888 2947 1384 2947 
Q 1766 2947 2009 2819 
Q 2194 2722 2281 2516 
Q 2338 2381 2338 1966 
L 2338 994 
Q 2338 584 2353 492 
Q 2369 400 2405 369 
Q 2441 338 2488 338 
Q 2538 338 2575 359 
Q 2641 400 2828 588 
L 2828 413 
Q 2478 -56 2159 -56 
Q 2006 -56 1915 50 
Q 1825 156 1822 413 
z
M 1822 616 
L 1822 1706 
Q 1350 1519 1213 1441 
Q 966 1303 859 1153 
Q 753 1003 753 825 
Q 753 600 887 451 
Q 1022 303 1197 303 
Q 1434 303 1822 616 
z
" transform="scale(0.015625)"/>
      <path id="TimesNewRomanPSMT-57" d="M 1031 3803 
L 1031 2863 
L 1700 2863 
L 1700 2644 
L 1031 2644 
L 1031 788 
Q 1031 509 1111 412 
Q 1191 316 1316 316 
Q 1419 316 1516 380 
Q 1613 444 1666 569 
L 1788 569 
Q 1678 263 1478 108 
Q 1278 -47 1066 -47 
Q 922 -47 784 33 
Q 647 113 581 261 
Q 516 409 516 719 
L 516 2644 
L 63 2644 
L 63 2747 
Q 234 2816 414 2980 
Q 594 3144 734 3369 
Q 806 3488 934 3803 
L 1031 3803 
z
" transform="scale(0.015625)"/>
      <path id="TimesNewRomanPSMT-58" d="M 2709 2863 
L 2709 1128 
Q 2709 631 2732 520 
Q 2756 409 2807 365 
Q 2859 322 2928 322 
Q 3025 322 3147 375 
L 3191 266 
L 2334 -88 
L 2194 -88 
L 2194 519 
Q 1825 119 1631 15 
Q 1438 -88 1222 -88 
Q 981 -88 804 51 
Q 628 191 559 409 
Q 491 628 491 1028 
L 491 2306 
Q 491 2509 447 2587 
Q 403 2666 317 2708 
Q 231 2750 6 2747 
L 6 2863 
L 1009 2863 
L 1009 947 
Q 1009 547 1148 422 
Q 1288 297 1484 297 
Q 1619 297 1789 381 
Q 1959 466 2194 703 
L 2194 2325 
Q 2194 2569 2105 2655 
Q 2016 2741 1734 2747 
L 1734 2863 
L 2709 2863 
z
" transform="scale(0.015625)"/>
      <path id="TimesNewRomanPSMT-55" d="M 1038 2947 
L 1038 2303 
Q 1397 2947 1775 2947 
Q 1947 2947 2059 2842 
Q 2172 2738 2172 2600 
Q 2172 2478 2090 2393 
Q 2009 2309 1897 2309 
Q 1788 2309 1652 2417 
Q 1516 2525 1450 2525 
Q 1394 2525 1328 2463 
Q 1188 2334 1038 2041 
L 1038 669 
Q 1038 431 1097 309 
Q 1138 225 1241 169 
Q 1344 113 1538 113 
L 1538 0 
L 72 0 
L 72 113 
Q 291 113 397 181 
Q 475 231 506 341 
Q 522 394 522 644 
L 522 1753 
Q 522 2253 501 2348 
Q 481 2444 426 2487 
Q 372 2531 291 2531 
Q 194 2531 72 2484 
L 41 2597 
L 906 2947 
L 1038 2947 
z
" transform="scale(0.015625)"/>
      <path id="TimesNewRomanPSMT-56" d="M 2050 2947 
L 2050 1972 
L 1947 1972 
Q 1828 2431 1642 2597 
Q 1456 2763 1169 2763 
Q 950 2763 815 2647 
Q 681 2531 681 2391 
Q 681 2216 781 2091 
Q 878 1963 1175 1819 
L 1631 1597 
Q 2266 1288 2266 781 
Q 2266 391 1970 151 
Q 1675 -88 1309 -88 
Q 1047 -88 709 6 
Q 606 38 541 38 
Q 469 38 428 -44 
L 325 -44 
L 325 978 
L 428 978 
Q 516 541 762 319 
Q 1009 97 1316 97 
Q 1531 97 1667 223 
Q 1803 350 1803 528 
Q 1803 744 1651 891 
Q 1500 1038 1047 1263 
Q 594 1488 453 1669 
Q 313 1847 313 2119 
Q 313 2472 555 2709 
Q 797 2947 1181 2947 
Q 1350 2947 1591 2875 
Q 1750 2828 1803 2828 
Q 1853 2828 1881 2850 
Q 1909 2872 1947 2947 
L 2050 2947 
z
" transform="scale(0.015625)"/>
     </defs>
     <use xlink:href="#TimesNewRomanPSMT-31"/>
     <use xlink:href="#TimesNewRomanPSMT-52" transform="translate(72.21875 0)"/>
     <use xlink:href="#TimesNewRomanPSMT-47" transform="translate(122.21875 0)"/>
     <use xlink:href="#TimesNewRomanPSMT-48" transform="translate(172.21875 0)"/>
     <use xlink:href="#TimesNewRomanPSMT-3" transform="translate(216.609375 0)"/>
     <use xlink:href="#TimesNewRomanPSMT-49" transform="translate(241.609375 0)"/>
     <use xlink:href="#TimesNewRomanPSMT-48" transform="translate(274.90625 0)"/>
     <use xlink:href="#TimesNewRomanPSMT-44" transform="translate(319.296875 0)"/>
     <use xlink:href="#TimesNewRomanPSMT-57" transform="translate(363.6875 0)"/>
     <use xlink:href="#TimesNewRomanPSMT-58" transform="translate(391.46875 0)"/>
     <use xlink:href="#TimesNewRomanPSMT-55" transform="translate(441.46875 0)"/>
     <use xlink:href="#TimesNewRomanPSMT-48" transform="translate(474.765625 0)"/>
     <use xlink:href="#TimesNewRomanPSMT-56" transform="translate(519.15625 0)"/>
    </g>
   </g>
   <g id="text_5">
    <!-- $T{=}7$, $N{=}9$, $F_n{=}9$ -->
    <g style="fill: #4a5568" transform="translate(33.858 51.208073) scale(0.066 -0.066)">
     <defs>
      <path id="DejaVuSans-Oblique-37" d="M 378 4666 
L 4325 4666 
L 4225 4134 
L 2559 4134 
L 1759 0 
L 1125 0 
L 1925 4134 
L 275 4134 
L 378 4666 
z
" transform="scale(0.015625)"/>
      <path id="DejaVuSans-20" d="M 678 2906 
L 4684 2906 
L 4684 2381 
L 678 2381 
L 678 2906 
z
M 678 1631 
L 4684 1631 
L 4684 1100 
L 678 1100 
L 678 1631 
z
" transform="scale(0.015625)"/>
      <path id="DejaVuSans-1a" d="M 525 4666 
L 3525 4666 
L 3525 4397 
L 1831 0 
L 1172 0 
L 2766 4134 
L 525 4134 
L 525 4666 
z
" transform="scale(0.015625)"/>
      <path id="TimesNewRomanPSMT-f" d="M 344 -1066 
L 344 -928 
Q 666 -822 842 -598 
Q 1019 -375 1019 -125 
Q 1019 -66 991 -25 
Q 969 3 947 3 
Q 913 3 797 -59 
Q 741 -88 678 -88 
Q 525 -88 434 3 
Q 344 94 344 253 
Q 344 406 461 515 
Q 578 625 747 625 
Q 953 625 1114 445 
Q 1275 266 1275 -31 
Q 1275 -353 1051 -629 
Q 828 -906 344 -1066 
z
" transform="scale(0.015625)"/>
      <path id="DejaVuSans-Oblique-31" d="M 1081 4666 
L 1931 4666 
L 3219 666 
L 4000 4666 
L 4616 4666 
L 3706 0 
L 2853 0 
L 1569 4025 
L 788 0 
L 172 0 
L 1081 4666 
z
" transform="scale(0.015625)"/>
      <path id="DejaVuSans-1c" d="M 703 97 
L 703 672 
Q 941 559 1184 500 
Q 1428 441 1663 441 
Q 2288 441 2617 861 
Q 2947 1281 2994 2138 
Q 2813 1869 2534 1725 
Q 2256 1581 1919 1581 
Q 1219 1581 811 2004 
Q 403 2428 403 3163 
Q 403 3881 828 4315 
Q 1253 4750 1959 4750 
Q 2769 4750 3195 4129 
Q 3622 3509 3622 2328 
Q 3622 1225 3098 567 
Q 2575 -91 1691 -91 
Q 1453 -91 1209 -44 
Q 966 3 703 97 
z
M 1959 2075 
Q 2384 2075 2632 2365 
Q 2881 2656 2881 3163 
Q 2881 3666 2632 3958 
Q 2384 4250 1959 4250 
Q 1534 4250 1286 3958 
Q 1038 3666 1038 3163 
Q 1038 2656 1286 2365 
Q 1534 2075 1959 2075 
z
" transform="scale(0.015625)"/>
      <path id="DejaVuSans-Oblique-29" d="M 1081 4666 
L 3756 4666 
L 3653 4134 
L 1606 4134 
L 1338 2759 
L 3188 2759 
L 3084 2228 
L 1234 2228 
L 800 0 
L 172 0 
L 1081 4666 
z
" transform="scale(0.015625)"/>
      <path id="DejaVuSans-Oblique-51" d="M 3566 2113 
L 3156 0 
L 2578 0 
L 2988 2091 
Q 3016 2238 3031 2350 
Q 3047 2463 3047 2528 
Q 3047 2791 2881 2937 
Q 2716 3084 2419 3084 
Q 1956 3084 1622 2776 
Q 1288 2469 1184 1941 
L 800 0 
L 225 0 
L 903 3500 
L 1478 3500 
L 1363 2950 
Q 1603 3253 1940 3418 
Q 2278 3584 2650 3584 
Q 3113 3584 3367 3334 
Q 3622 3084 3622 2631 
Q 3622 2519 3608 2391 
Q 3594 2263 3566 2113 
z
" transform="scale(0.015625)"/>
     </defs>
     <use xlink:href="#DejaVuSans-Oblique-37" transform="translate(0 0.78125)"/>
     <use xlink:href="#DejaVuSans-20" transform="translate(80.566406 0.78125)"/>
     <use xlink:href="#DejaVuSans-1a" transform="translate(183.837891 0.78125)"/>
     <use xlink:href="#TimesNewRomanPSMT-f" transform="translate(247.460938 0.78125)"/>
     <use xlink:href="#TimesNewRomanPSMT-3" transform="translate(272.460938 0.78125)"/>
     <use xlink:href="#DejaVuSans-Oblique-31" transform="translate(297.460938 0.78125)"/>
     <use xlink:href="#DejaVuSans-20" transform="translate(391.748047 0.78125)"/>
     <use xlink:href="#DejaVuSans-1c" transform="translate(495.019531 0.78125)"/>
     <use xlink:href="#TimesNewRomanPSMT-f" transform="translate(558.642578 0.78125)"/>
     <use xlink:href="#TimesNewRomanPSMT-3" transform="translate(583.642578 0.78125)"/>
     <use xlink:href="#DejaVuSans-Oblique-29" transform="translate(608.642578 0.78125)"/>
     <use xlink:href="#DejaVuSans-Oblique-51" transform="translate(666.162109 -14.218701) scale(0.7)"/>
     <use xlink:href="#DejaVuSans-20" transform="translate(732.744141 0.78125)"/>
     <use xlink:href="#DejaVuSans-1c" transform="translate(836.015625 0.78125)"/>
    </g>
   </g>
   <g id="text_6">
    <!-- Global context -->
    <g style="fill: #1a202c" transform="translate(39.897375 79.190379) scale(0.08 -0.08)">
     <defs>
      <path id="TimesNewRomanPSMT-2a" d="M 3928 4334 
L 4038 2997 
L 3928 2997 
Q 3763 3497 3500 3750 
Q 3122 4116 2528 4116 
Q 1719 4116 1297 3475 
Q 944 2934 944 2188 
Q 944 1581 1178 1081 
Q 1413 581 1792 348 
Q 2172 116 2572 116 
Q 2806 116 3025 175 
Q 3244 234 3447 350 
L 3447 1575 
Q 3447 1894 3398 1992 
Q 3350 2091 3248 2142 
Q 3147 2194 2891 2194 
L 2891 2313 
L 4531 2313 
L 4531 2194 
L 4453 2194 
Q 4209 2194 4119 2031 
Q 4056 1916 4056 1575 
L 4056 278 
Q 3697 84 3347 -6 
Q 2997 -97 2569 -97 
Q 1341 -97 703 691 
Q 225 1281 225 2053 
Q 225 2613 494 3125 
Q 813 3734 1369 4063 
Q 1834 4334 2469 4334 
Q 2700 4334 2889 4296 
Q 3078 4259 3425 4131 
Q 3600 4066 3659 4066 
Q 3719 4066 3761 4120 
Q 3803 4175 3813 4334 
L 3928 4334 
z
" transform="scale(0.015625)"/>
      <path id="TimesNewRomanPSMT-4f" d="M 1184 4444 
L 1184 647 
Q 1184 378 1223 290 
Q 1263 203 1344 158 
Q 1425 113 1647 113 
L 1647 0 
L 244 0 
L 244 113 
Q 441 113 512 153 
Q 584 194 625 287 
Q 666 381 666 647 
L 666 3247 
Q 666 3731 644 3842 
Q 622 3953 573 3993 
Q 525 4034 450 4034 
Q 369 4034 244 3984 
L 191 4094 
L 1044 4444 
L 1184 4444 
z
" transform="scale(0.015625)"/>
      <path id="TimesNewRomanPSMT-45" d="M 984 2369 
Q 1400 2947 1881 2947 
Q 2322 2947 2650 2570 
Q 2978 2194 2978 1541 
Q 2978 778 2472 313 
Q 2038 -88 1503 -88 
Q 1253 -88 995 3 
Q 738 94 469 275 
L 469 3241 
Q 469 3728 445 3840 
Q 422 3953 372 3993 
Q 322 4034 247 4034 
Q 159 4034 28 3984 
L -16 4094 
L 844 4444 
L 984 4444 
L 984 2369 
z
M 984 2169 
L 984 456 
Q 1144 300 1314 220 
Q 1484 141 1663 141 
Q 1947 141 2192 453 
Q 2438 766 2438 1363 
Q 2438 1913 2192 2208 
Q 1947 2503 1634 2503 
Q 1469 2503 1303 2419 
Q 1178 2356 984 2169 
z
" transform="scale(0.015625)"/>
      <path id="TimesNewRomanPSMT-46" d="M 2631 1088 
Q 2516 522 2178 217 
Q 1841 -88 1431 -88 
Q 944 -88 581 321 
Q 219 731 219 1428 
Q 219 2103 620 2525 
Q 1022 2947 1584 2947 
Q 2006 2947 2278 2723 
Q 2550 2500 2550 2259 
Q 2550 2141 2473 2067 
Q 2397 1994 2259 1994 
Q 2075 1994 1981 2113 
Q 1928 2178 1911 2362 
Q 1894 2547 1784 2644 
Q 1675 2738 1481 2738 
Q 1169 2738 978 2506 
Q 725 2200 725 1697 
Q 725 1184 976 792 
Q 1228 400 1656 400 
Q 1963 400 2206 609 
Q 2378 753 2541 1131 
L 2631 1088 
z
" transform="scale(0.015625)"/>
      <path id="TimesNewRomanPSMT-51" d="M 1034 2341 
Q 1538 2947 1994 2947 
Q 2228 2947 2397 2830 
Q 2566 2713 2666 2444 
Q 2734 2256 2734 1869 
L 2734 647 
Q 2734 375 2778 278 
Q 2813 200 2889 156 
Q 2966 113 3172 113 
L 3172 0 
L 1756 0 
L 1756 113 
L 1816 113 
Q 2016 113 2095 173 
Q 2175 234 2206 353 
Q 2219 400 2219 647 
L 2219 1819 
Q 2219 2209 2117 2386 
Q 2016 2563 1775 2563 
Q 1403 2563 1034 2156 
L 1034 647 
Q 1034 356 1069 288 
Q 1113 197 1189 155 
Q 1266 113 1500 113 
L 1500 0 
L 84 0 
L 84 113 
L 147 113 
Q 366 113 442 223 
Q 519 334 519 647 
L 519 1709 
Q 519 2225 495 2337 
Q 472 2450 423 2490 
Q 375 2531 294 2531 
Q 206 2531 84 2484 
L 38 2597 
L 900 2947 
L 1034 2947 
L 1034 2341 
z
" transform="scale(0.015625)"/>
      <path id="TimesNewRomanPSMT-5b" d="M 84 2863 
L 1431 2863 
L 1431 2747 
Q 1303 2747 1251 2703 
Q 1200 2659 1200 2588 
Q 1200 2513 1309 2356 
Q 1344 2306 1413 2200 
L 1616 1875 
L 1850 2200 
Q 2075 2509 2075 2591 
Q 2075 2656 2022 2701 
Q 1969 2747 1850 2747 
L 1850 2863 
L 2819 2863 
L 2819 2747 
Q 2666 2738 2553 2663 
Q 2400 2556 2134 2200 
L 1744 1678 
L 2456 653 
Q 2719 275 2831 198 
Q 2944 122 3122 113 
L 3122 0 
L 1772 0 
L 1772 113 
Q 1913 113 1991 175 
Q 2050 219 2050 291 
Q 2050 363 1850 653 
L 1431 1266 
L 972 653 
Q 759 369 759 316 
Q 759 241 829 180 
Q 900 119 1041 113 
L 1041 0 
L 106 0 
L 106 113 
Q 219 128 303 191 
Q 422 281 703 653 
L 1303 1450 
L 759 2238 
Q 528 2575 401 2661 
Q 275 2747 84 2747 
L 84 2863 
z
" transform="scale(0.015625)"/>
     </defs>
     <use xlink:href="#TimesNewRomanPSMT-2a"/>
     <use xlink:href="#TimesNewRomanPSMT-4f" transform="translate(72.21875 0)"/>
     <use xlink:href="#TimesNewRomanPSMT-52" transform="translate(100 0)"/>
     <use xlink:href="#TimesNewRomanPSMT-45" transform="translate(150 0)"/>
     <use xlink:href="#TimesNewRomanPSMT-44" transform="translate(200 0)"/>
     <use xlink:href="#TimesNewRomanPSMT-4f" transform="translate(244.390625 0)"/>
     <use xlink:href="#TimesNewRomanPSMT-3" transform="translate(272.171875 0)"/>
     <use xlink:href="#TimesNewRomanPSMT-46" transform="translate(297.171875 0)"/>
     <use xlink:href="#TimesNewRomanPSMT-52" transform="translate(341.5625 0)"/>
     <use xlink:href="#TimesNewRomanPSMT-51" transform="translate(391.5625 0)"/>
     <use xlink:href="#TimesNewRomanPSMT-57" transform="translate(441.5625 0)"/>
     <use xlink:href="#TimesNewRomanPSMT-48" transform="translate(469.34375 0)"/>
     <use xlink:href="#TimesNewRomanPSMT-5b" transform="translate(513.734375 0)"/>
     <use xlink:href="#TimesNewRomanPSMT-57" transform="translate(563.734375 0)"/>
    </g>
   </g>
   <g id="text_7">
    <!-- $T{=}7$, $F_g{=}17$ -->
    <g style="fill: #4a5568" transform="translate(42.009 86.34588) scale(0.066 -0.066)">
     <defs>
      <path id="DejaVuSans-Oblique-4a" d="M 3816 3500 
L 3219 434 
Q 3047 -456 2561 -893 
Q 2075 -1331 1253 -1331 
Q 950 -1331 690 -1286 
Q 431 -1241 206 -1147 
L 313 -588 
Q 525 -725 762 -790 
Q 1000 -856 1269 -856 
Q 1816 -856 2167 -557 
Q 2519 -259 2631 300 
L 2681 563 
Q 2441 288 2122 144 
Q 1803 0 1434 0 
Q 903 0 598 351 
Q 294 703 294 1319 
Q 294 1803 478 2267 
Q 663 2731 997 3091 
Q 1219 3328 1514 3456 
Q 1809 3584 2131 3584 
Q 2484 3584 2746 3420 
Q 3009 3256 3138 2956 
L 3238 3500 
L 3816 3500 
z
M 2950 2216 
Q 2950 2641 2750 2872 
Q 2550 3103 2181 3103 
Q 1953 3103 1747 3012 
Q 1541 2922 1394 2759 
Q 1156 2491 1023 2127 
Q 891 1763 891 1375 
Q 891 944 1092 712 
Q 1294 481 1672 481 
Q 2219 481 2584 976 
Q 2950 1472 2950 2216 
z
" transform="scale(0.015625)"/>
      <path id="DejaVuSans-14" d="M 794 531 
L 1825 531 
L 1825 4091 
L 703 3866 
L 703 4441 
L 1819 4666 
L 2450 4666 
L 2450 531 
L 3481 531 
L 3481 0 
L 794 0 
L 794 531 
z
" transform="scale(0.015625)"/>
     </defs>
     <use xlink:href="#DejaVuSans-Oblique-37" transform="translate(0 0.09375)"/>
     <use xlink:href="#DejaVuSans-20" transform="translate(80.566406 0.09375)"/>
     <use xlink:href="#DejaVuSans-1a" transform="translate(183.837891 0.09375)"/>
     <use xlink:href="#TimesNewRomanPSMT-f" transform="translate(247.460938 0.09375)"/>
     <use xlink:href="#TimesNewRomanPSMT-3" transform="translate(272.460938 0.09375)"/>
     <use xlink:href="#DejaVuSans-Oblique-29" transform="translate(297.460938 0.09375)"/>
     <use xlink:href="#DejaVuSans-Oblique-4a" transform="translate(354.980469 -14.906201) scale(0.7)"/>
     <use xlink:href="#DejaVuSans-20" transform="translate(421.630859 0.09375)"/>
     <use xlink:href="#DejaVuSans-14" transform="translate(524.902344 0.09375)"/>
     <use xlink:href="#DejaVuSans-1a" transform="translate(588.525391 0.09375)"/>
    </g>
   </g>
   <g id="text_8">
    <!-- Corr. graph $\mathbf{A}$ -->
    <g style="fill: #1a202c" transform="translate(41.238 114.79776) scale(0.08 -0.08)">
     <defs>
      <path id="TimesNewRomanPSMT-26" d="M 3853 4334 
L 3950 2894 
L 3853 2894 
Q 3659 3541 3300 3825 
Q 2941 4109 2438 4109 
Q 2016 4109 1675 3895 
Q 1334 3681 1139 3212 
Q 944 2744 944 2047 
Q 944 1472 1128 1050 
Q 1313 628 1683 403 
Q 2053 178 2528 178 
Q 2941 178 3256 354 
Q 3572 531 3950 1056 
L 4047 994 
Q 3728 428 3303 165 
Q 2878 -97 2294 -97 
Q 1241 -97 663 684 
Q 231 1266 231 2053 
Q 231 2688 515 3219 
Q 800 3750 1298 4042 
Q 1797 4334 2388 4334 
Q 2847 4334 3294 4109 
Q 3425 4041 3481 4041 
Q 3566 4041 3628 4100 
Q 3709 4184 3744 4334 
L 3853 4334 
z
" transform="scale(0.015625)"/>
      <path id="TimesNewRomanPSMT-11" d="M 800 606 
Q 947 606 1047 504 
Q 1147 403 1147 259 
Q 1147 116 1045 14 
Q 944 -88 800 -88 
Q 656 -88 554 14 
Q 453 116 453 259 
Q 453 406 554 506 
Q 656 606 800 606 
z
" transform="scale(0.015625)"/>
      <path id="TimesNewRomanPSMT-4a" d="M 966 1044 
Q 703 1172 562 1401 
Q 422 1631 422 1909 
Q 422 2334 742 2640 
Q 1063 2947 1563 2947 
Q 1972 2947 2272 2747 
L 2878 2747 
Q 3013 2747 3034 2739 
Q 3056 2731 3066 2713 
Q 3084 2684 3084 2613 
Q 3084 2531 3069 2500 
Q 3059 2484 3036 2475 
Q 3013 2466 2878 2466 
L 2506 2466 
Q 2681 2241 2681 1891 
Q 2681 1491 2375 1206 
Q 2069 922 1553 922 
Q 1341 922 1119 984 
Q 981 866 932 777 
Q 884 688 884 625 
Q 884 572 936 522 
Q 988 472 1138 450 
Q 1225 438 1575 428 
Q 2219 413 2409 384 
Q 2700 344 2873 169 
Q 3047 -6 3047 -263 
Q 3047 -616 2716 -925 
Q 2228 -1381 1444 -1381 
Q 841 -1381 425 -1109 
Q 191 -953 191 -784 
Q 191 -709 225 -634 
Q 278 -519 444 -313 
Q 466 -284 763 25 
Q 600 122 533 198 
Q 466 275 466 372 
Q 466 481 555 628 
Q 644 775 966 1044 
z
M 1509 2797 
Q 1278 2797 1122 2612 
Q 966 2428 966 2047 
Q 966 1553 1178 1281 
Q 1341 1075 1591 1075 
Q 1828 1075 1981 1253 
Q 2134 1431 2134 1813 
Q 2134 2309 1919 2591 
Q 1759 2797 1509 2797 
z
M 934 0 
Q 788 -159 713 -296 
Q 638 -434 638 -550 
Q 638 -700 819 -813 
Q 1131 -1006 1722 -1006 
Q 2284 -1006 2551 -807 
Q 2819 -609 2819 -384 
Q 2819 -222 2659 -153 
Q 2497 -84 2016 -72 
Q 1313 -53 934 0 
z
" transform="scale(0.015625)"/>
      <path id="TimesNewRomanPSMT-53" d="M -6 2578 
L 875 2934 
L 994 2934 
L 994 2266 
Q 1216 2644 1439 2795 
Q 1663 2947 1909 2947 
Q 2341 2947 2628 2609 
Q 2981 2197 2981 1534 
Q 2981 794 2556 309 
Q 2206 -88 1675 -88 
Q 1444 -88 1275 -22 
Q 1150 25 994 166 
L 994 -706 
Q 994 -1000 1030 -1079 
Q 1066 -1159 1155 -1206 
Q 1244 -1253 1478 -1253 
L 1478 -1369 
L -22 -1369 
L -22 -1253 
L 56 -1253 
Q 228 -1256 350 -1188 
Q 409 -1153 442 -1076 
Q 475 -1000 475 -688 
L 475 2019 
Q 475 2297 450 2372 
Q 425 2447 370 2484 
Q 316 2522 222 2522 
Q 147 2522 31 2478 
L -6 2578 
z
M 994 2081 
L 994 1013 
Q 994 666 1022 556 
Q 1066 375 1236 237 
Q 1406 100 1666 100 
Q 1978 100 2172 344 
Q 2425 663 2425 1241 
Q 2425 1897 2138 2250 
Q 1938 2494 1663 2494 
Q 1513 2494 1366 2419 
Q 1253 2363 994 2081 
z
" transform="scale(0.015625)"/>
      <path id="TimesNewRomanPSMT-4b" d="M 1041 4444 
L 1041 2350 
Q 1388 2731 1591 2839 
Q 1794 2947 1997 2947 
Q 2241 2947 2416 2812 
Q 2591 2678 2675 2391 
Q 2734 2191 2734 1659 
L 2734 647 
Q 2734 375 2778 275 
Q 2809 200 2884 156 
Q 2959 113 3159 113 
L 3159 0 
L 1753 0 
L 1753 113 
L 1819 113 
Q 2019 113 2097 173 
Q 2175 234 2206 353 
Q 2216 403 2216 647 
L 2216 1659 
Q 2216 2128 2167 2275 
Q 2119 2422 2012 2495 
Q 1906 2569 1756 2569 
Q 1603 2569 1437 2487 
Q 1272 2406 1041 2159 
L 1041 647 
Q 1041 353 1073 281 
Q 1106 209 1195 161 
Q 1284 113 1503 113 
L 1503 0 
L 84 0 
L 84 113 
Q 275 113 384 172 
Q 447 203 484 290 
Q 522 378 522 647 
L 522 3238 
Q 522 3728 498 3840 
Q 475 3953 426 3993 
Q 378 4034 297 4034 
Q 231 4034 84 3984 
L 41 4094 
L 897 4444 
L 1041 4444 
z
" transform="scale(0.015625)"/>
      <path id="DejaVuSans-Bold-24" d="M 3419 850 
L 1538 850 
L 1241 0 
L 31 0 
L 1759 4666 
L 3194 4666 
L 4922 0 
L 3713 0 
L 3419 850 
z
M 1838 1716 
L 3116 1716 
L 2478 3572 
L 1838 1716 
z
" transform="scale(0.015625)"/>
     </defs>
     <use xlink:href="#TimesNewRomanPSMT-26" transform="translate(0 0.09375)"/>
     <use xlink:href="#TimesNewRomanPSMT-52" transform="translate(66.699219 0.09375)"/>
     <use xlink:href="#TimesNewRomanPSMT-55" transform="translate(116.699219 0.09375)"/>
     <use xlink:href="#TimesNewRomanPSMT-55" transform="translate(150 0.09375)"/>
     <use xlink:href="#TimesNewRomanPSMT-11" transform="translate(177.300781 0.09375)"/>
     <use xlink:href="#TimesNewRomanPSMT-3" transform="translate(202.300781 0.09375)"/>
     <use xlink:href="#TimesNewRomanPSMT-4a" transform="translate(227.300781 0.09375)"/>
     <use xlink:href="#TimesNewRomanPSMT-55" transform="translate(277.300781 0.09375)"/>
     <use xlink:href="#TimesNewRomanPSMT-44" transform="translate(310.601562 0.09375)"/>
     <use xlink:href="#TimesNewRomanPSMT-53" transform="translate(354.986328 0.09375)"/>
     <use xlink:href="#TimesNewRomanPSMT-4b" transform="translate(404.986328 0.09375)"/>
     <use xlink:href="#TimesNewRomanPSMT-3" transform="translate(454.986328 0.09375)"/>
     <use xlink:href="#DejaVuSans-Bold-24" transform="translate(479.986328 0.09375)"/>
    </g>
   </g>
   <g id="text_9">
    <!-- $\tau{=}0.65$ -->
    <g style="fill: #4a5568" transform="translate(50.16 122.171273) scale(0.066 -0.066)">
     <defs>
      <path id="DejaVuSans-Oblique-358" d="M 2103 638 
Q 2188 488 2525 488 
L 2800 488 
L 2706 0 
L 2363 0 
Q 1800 0 1600 300 
Q 1403 606 1534 1269 
L 1856 2925 
L 541 2925 
L 653 3500 
L 3881 3500 
L 3769 2925 
L 2444 2925 
L 2113 1234 
Q 2025 781 2103 638 
z
" transform="scale(0.015625)"/>
      <path id="DejaVuSans-13" d="M 2034 4250 
Q 1547 4250 1301 3770 
Q 1056 3291 1056 2328 
Q 1056 1369 1301 889 
Q 1547 409 2034 409 
Q 2525 409 2770 889 
Q 3016 1369 3016 2328 
Q 3016 3291 2770 3770 
Q 2525 4250 2034 4250 
z
M 2034 4750 
Q 2819 4750 3233 4129 
Q 3647 3509 3647 2328 
Q 3647 1150 3233 529 
Q 2819 -91 2034 -91 
Q 1250 -91 836 529 
Q 422 1150 422 2328 
Q 422 3509 836 4129 
Q 1250 4750 2034 4750 
z
" transform="scale(0.015625)"/>
      <path id="DejaVuSans-11" d="M 684 794 
L 1344 794 
L 1344 0 
L 684 0 
L 684 794 
z
" transform="scale(0.015625)"/>
      <path id="DejaVuSans-19" d="M 2113 2584 
Q 1688 2584 1439 2293 
Q 1191 2003 1191 1497 
Q 1191 994 1439 701 
Q 1688 409 2113 409 
Q 2538 409 2786 701 
Q 3034 994 3034 1497 
Q 3034 2003 2786 2293 
Q 2538 2584 2113 2584 
z
M 3366 4563 
L 3366 3988 
Q 3128 4100 2886 4159 
Q 2644 4219 2406 4219 
Q 1781 4219 1451 3797 
Q 1122 3375 1075 2522 
Q 1259 2794 1537 2939 
Q 1816 3084 2150 3084 
Q 2853 3084 3261 2657 
Q 3669 2231 3669 1497 
Q 3669 778 3244 343 
Q 2819 -91 2113 -91 
Q 1303 -91 875 529 
Q 447 1150 447 2328 
Q 447 3434 972 4092 
Q 1497 4750 2381 4750 
Q 2619 4750 2861 4703 
Q 3103 4656 3366 4563 
z
" transform="scale(0.015625)"/>
      <path id="DejaVuSans-18" d="M 691 4666 
L 3169 4666 
L 3169 4134 
L 1269 4134 
L 1269 2991 
Q 1406 3038 1543 3061 
Q 1681 3084 1819 3084 
Q 2600 3084 3056 2656 
Q 3513 2228 3513 1497 
Q 3513 744 3044 326 
Q 2575 -91 1722 -91 
Q 1428 -91 1123 -41 
Q 819 9 494 109 
L 494 744 
Q 775 591 1075 516 
Q 1375 441 1709 441 
Q 2250 441 2565 725 
Q 2881 1009 2881 1497 
Q 2881 1984 2565 2268 
Q 2250 2553 1709 2553 
Q 1456 2553 1204 2497 
Q 953 2441 691 2322 
L 691 4666 
z
" transform="scale(0.015625)"/>
     </defs>
     <use xlink:href="#DejaVuSans-Oblique-358" transform="translate(0 0.78125)"/>
     <use xlink:href="#DejaVuSans-20" transform="translate(79.6875 0.78125)"/>
     <use xlink:href="#DejaVuSans-13" transform="translate(182.958984 0.78125)"/>
     <use xlink:href="#DejaVuSans-11" transform="translate(246.582031 0.78125)"/>
     <use xlink:href="#DejaVuSans-19" transform="translate(278.369141 0.78125)"/>
     <use xlink:href="#DejaVuSans-18" transform="translate(341.992188 0.78125)"/>
    </g>
   </g>
   <g id="text_10">
    <!-- Embedding + positional encoding -->
    <g style="fill: #1a202c" transform="translate(164.545125 43.708779) scale(0.08 -0.08)">
     <defs>
      <path id="TimesNewRomanPSMT-28" d="M 1338 4006 
L 1338 2331 
L 2269 2331 
Q 2631 2331 2753 2441 
Q 2916 2584 2934 2947 
L 3050 2947 
L 3050 1472 
L 2934 1472 
Q 2891 1781 2847 1869 
Q 2791 1978 2662 2040 
Q 2534 2103 2269 2103 
L 1338 2103 
L 1338 706 
Q 1338 425 1363 364 
Q 1388 303 1450 267 
Q 1513 231 1688 231 
L 2406 231 
Q 2766 231 2928 281 
Q 3091 331 3241 478 
Q 3434 672 3638 1063 
L 3763 1063 
L 3397 0 
L 131 0 
L 131 116 
L 281 116 
Q 431 116 566 188 
Q 666 238 702 338 
Q 738 438 738 747 
L 738 3500 
Q 738 3903 656 3997 
Q 544 4122 281 4122 
L 131 4122 
L 131 4238 
L 3397 4238 
L 3444 3309 
L 3322 3309 
Q 3256 3644 3176 3769 
Q 3097 3894 2941 3959 
Q 2816 4006 2500 4006 
L 1338 4006 
z
" transform="scale(0.015625)"/>
      <path id="TimesNewRomanPSMT-50" d="M 1050 2338 
Q 1363 2650 1419 2697 
Q 1559 2816 1721 2881 
Q 1884 2947 2044 2947 
Q 2313 2947 2506 2790 
Q 2700 2634 2766 2338 
Q 3088 2713 3309 2830 
Q 3531 2947 3766 2947 
Q 3994 2947 4170 2830 
Q 4347 2713 4450 2447 
Q 4519 2266 4519 1878 
L 4519 647 
Q 4519 378 4559 278 
Q 4591 209 4675 161 
Q 4759 113 4950 113 
L 4950 0 
L 3538 0 
L 3538 113 
L 3597 113 
Q 3781 113 3884 184 
Q 3956 234 3988 344 
Q 4000 397 4000 647 
L 4000 1878 
Q 4000 2228 3916 2372 
Q 3794 2572 3525 2572 
Q 3359 2572 3192 2489 
Q 3025 2406 2788 2181 
L 2781 2147 
L 2788 2013 
L 2788 647 
Q 2788 353 2820 281 
Q 2853 209 2943 161 
Q 3034 113 3253 113 
L 3253 0 
L 1806 0 
L 1806 113 
Q 2044 113 2133 169 
Q 2222 225 2256 338 
Q 2272 391 2272 647 
L 2272 1878 
Q 2272 2228 2169 2381 
Q 2031 2581 1784 2581 
Q 1616 2581 1450 2491 
Q 1191 2353 1050 2181 
L 1050 647 
Q 1050 366 1089 281 
Q 1128 197 1204 155 
Q 1281 113 1516 113 
L 1516 0 
L 100 0 
L 100 113 
Q 297 113 375 155 
Q 453 197 493 289 
Q 534 381 534 647 
L 534 1741 
Q 534 2213 506 2350 
Q 484 2453 437 2492 
Q 391 2531 309 2531 
Q 222 2531 100 2484 
L 53 2597 
L 916 2947 
L 1050 2947 
L 1050 2338 
z
" transform="scale(0.015625)"/>
      <path id="TimesNewRomanPSMT-4c" d="M 928 4444 
Q 1059 4444 1151 4351 
Q 1244 4259 1244 4128 
Q 1244 3997 1151 3903 
Q 1059 3809 928 3809 
Q 797 3809 703 3903 
Q 609 3997 609 4128 
Q 609 4259 701 4351 
Q 794 4444 928 4444 
z
M 1188 2947 
L 1188 647 
Q 1188 378 1227 289 
Q 1266 200 1342 156 
Q 1419 113 1622 113 
L 1622 0 
L 231 0 
L 231 113 
Q 441 113 512 153 
Q 584 194 626 287 
Q 669 381 669 647 
L 669 1750 
Q 669 2216 641 2353 
Q 619 2453 572 2492 
Q 525 2531 444 2531 
Q 356 2531 231 2484 
L 188 2597 
L 1050 2947 
L 1188 2947 
z
" transform="scale(0.015625)"/>
      <path id="TimesNewRomanPSMT-e" d="M 1672 441 
L 1672 2000 
L 116 2000 
L 116 2256 
L 1672 2256 
L 1672 3809 
L 1922 3809 
L 1922 2256 
L 3484 2256 
L 3484 2000 
L 1922 2000 
L 1922 441 
L 1672 441 
z
" transform="scale(0.015625)"/>
     </defs>
     <use xlink:href="#TimesNewRomanPSMT-28"/>
     <use xlink:href="#TimesNewRomanPSMT-50" transform="translate(61.078125 0)"/>
     <use xlink:href="#TimesNewRomanPSMT-45" transform="translate(138.859375 0)"/>
     <use xlink:href="#TimesNewRomanPSMT-48" transform="translate(188.859375 0)"/>
     <use xlink:href="#TimesNewRomanPSMT-47" transform="translate(233.25 0)"/>
     <use xlink:href="#TimesNewRomanPSMT-47" transform="translate(283.25 0)"/>
     <use xlink:href="#TimesNewRomanPSMT-4c" transform="translate(333.25 0)"/>
     <use xlink:href="#TimesNewRomanPSMT-51" transform="translate(361.03125 0)"/>
     <use xlink:href="#TimesNewRomanPSMT-4a" transform="translate(411.03125 0)"/>
     <use xlink:href="#TimesNewRomanPSMT-3" transform="translate(461.03125 0)"/>
     <use xlink:href="#TimesNewRomanPSMT-e" transform="translate(486.03125 0)"/>
     <use xlink:href="#TimesNewRomanPSMT-3" transform="translate(542.421875 0)"/>
     <use xlink:href="#TimesNewRomanPSMT-53" transform="translate(567.421875 0)"/>
     <use xlink:href="#TimesNewRomanPSMT-52" transform="translate(617.421875 0)"/>
     <use xlink:href="#TimesNewRomanPSMT-56" transform="translate(667.421875 0)"/>
     <use xlink:href="#TimesNewRomanPSMT-4c" transform="translate(706.34375 0)"/>
     <use xlink:href="#TimesNewRomanPSMT-57" transform="translate(734.125 0)"/>
     <use xlink:href="#TimesNewRomanPSMT-4c" transform="translate(761.90625 0)"/>
     <use xlink:href="#TimesNewRomanPSMT-52" transform="translate(789.6875 0)"/>
     <use xlink:href="#TimesNewRomanPSMT-51" transform="translate(839.6875 0)"/>
     <use xlink:href="#TimesNewRomanPSMT-44" transform="translate(889.6875 0)"/>
     <use xlink:href="#TimesNewRomanPSMT-4f" transform="translate(934.078125 0)"/>
     <use xlink:href="#TimesNewRomanPSMT-3" transform="translate(961.859375 0)"/>
     <use xlink:href="#TimesNewRomanPSMT-48" transform="translate(986.859375 0)"/>
     <use xlink:href="#TimesNewRomanPSMT-51" transform="translate(1031.25 0)"/>
     <use xlink:href="#TimesNewRomanPSMT-46" transform="translate(1081.25 0)"/>
     <use xlink:href="#TimesNewRomanPSMT-52" transform="translate(1125.640625 0)"/>
     <use xlink:href="#TimesNewRomanPSMT-47" transform="translate(1175.640625 0)"/>
     <use xlink:href="#TimesNewRomanPSMT-4c" transform="translate(1225.640625 0)"/>
     <use xlink:href="#TimesNewRomanPSMT-51" transform="translate(1253.421875 0)"/>
     <use xlink:href="#TimesNewRomanPSMT-4a" transform="translate(1303.421875 0)"/>
    </g>
   </g>
   <g id="text_11">
    <!-- node and global tensors -->
    <g style="fill: #4a5568" transform="translate(187.429453 51.02451) scale(0.066 -0.066)">
     <use xlink:href="#TimesNewRomanPSMT-51"/>
     <use xlink:href="#TimesNewRomanPSMT-52" transform="translate(50 0)"/>
     <use xlink:href="#TimesNewRomanPSMT-47" transform="translate(100 0)"/>
     <use xlink:href="#TimesNewRomanPSMT-48" transform="translate(150 0)"/>
     <use xlink:href="#TimesNewRomanPSMT-3" transform="translate(194.390625 0)"/>
     <use xlink:href="#TimesNewRomanPSMT-44" transform="translate(219.390625 0)"/>
     <use xlink:href="#TimesNewRomanPSMT-51" transform="translate(263.78125 0)"/>
     <use xlink:href="#TimesNewRomanPSMT-47" transform="translate(313.78125 0)"/>
     <use xlink:href="#TimesNewRomanPSMT-3" transform="translate(363.78125 0)"/>
     <use xlink:href="#TimesNewRomanPSMT-4a" transform="translate(388.78125 0)"/>
     <use xlink:href="#TimesNewRomanPSMT-4f" transform="translate(438.78125 0)"/>
     <use xlink:href="#TimesNewRomanPSMT-52" transform="translate(466.5625 0)"/>
     <use xlink:href="#TimesNewRomanPSMT-45" transform="translate(516.5625 0)"/>
     <use xlink:href="#TimesNewRomanPSMT-44" transform="translate(566.5625 0)"/>
     <use xlink:href="#TimesNewRomanPSMT-4f" transform="translate(610.953125 0)"/>
     <use xlink:href="#TimesNewRomanPSMT-3" transform="translate(638.734375 0)"/>
     <use xlink:href="#TimesNewRomanPSMT-57" transform="translate(663.734375 0)"/>
     <use xlink:href="#TimesNewRomanPSMT-48" transform="translate(691.515625 0)"/>
     <use xlink:href="#TimesNewRomanPSMT-51" transform="translate(735.90625 0)"/>
     <use xlink:href="#TimesNewRomanPSMT-56" transform="translate(785.90625 0)"/>
     <use xlink:href="#TimesNewRomanPSMT-52" transform="translate(824.828125 0)"/>
     <use xlink:href="#TimesNewRomanPSMT-55" transform="translate(874.828125 0)"/>
     <use xlink:href="#TimesNewRomanPSMT-56" transform="translate(908.125 0)"/>
    </g>
   </g>
   <g id="text_12">
    <!-- Graph transformer -->
    <g style="fill: #1a202c" transform="translate(139.923625 88.060779) scale(0.08 -0.08)">
     <use xlink:href="#TimesNewRomanPSMT-2a"/>
     <use xlink:href="#TimesNewRomanPSMT-55" transform="translate(72.21875 0)"/>
     <use xlink:href="#TimesNewRomanPSMT-44" transform="translate(105.515625 0)"/>
     <use xlink:href="#TimesNewRomanPSMT-53" transform="translate(149.90625 0)"/>
     <use xlink:href="#TimesNewRomanPSMT-4b" transform="translate(199.90625 0)"/>
     <use xlink:href="#TimesNewRomanPSMT-3" transform="translate(249.90625 0)"/>
     <use xlink:href="#TimesNewRomanPSMT-57" transform="translate(274.90625 0)"/>
     <use xlink:href="#TimesNewRomanPSMT-55" transform="translate(302.6875 0)"/>
     <use xlink:href="#TimesNewRomanPSMT-44" transform="translate(335.984375 0)"/>
     <use xlink:href="#TimesNewRomanPSMT-51" transform="translate(380.375 0)"/>
     <use xlink:href="#TimesNewRomanPSMT-56" transform="translate(430.375 0)"/>
     <use xlink:href="#TimesNewRomanPSMT-49" transform="translate(469.296875 0)"/>
     <use xlink:href="#TimesNewRomanPSMT-52" transform="translate(502.59375 0)"/>
     <use xlink:href="#TimesNewRomanPSMT-55" transform="translate(552.59375 0)"/>
     <use xlink:href="#TimesNewRomanPSMT-50" transform="translate(585.890625 0)"/>
     <use xlink:href="#TimesNewRomanPSMT-48" transform="translate(663.671875 0)"/>
     <use xlink:href="#TimesNewRomanPSMT-55" transform="translate(708.0625 0)"/>
    </g>
   </g>
   <g id="text_13">
    <!-- spatial attention -->
    <g style="fill: #4a5568" transform="translate(148.591547 95.37651) scale(0.066 -0.066)">
     <use xlink:href="#TimesNewRomanPSMT-56"/>
     <use xlink:href="#TimesNewRomanPSMT-53" transform="translate(38.921875 0)"/>
     <use xlink:href="#TimesNewRomanPSMT-44" transform="translate(88.921875 0)"/>
     <use xlink:href="#TimesNewRomanPSMT-57" transform="translate(133.3125 0)"/>
     <use xlink:href="#TimesNewRomanPSMT-4c" transform="translate(161.09375 0)"/>
     <use xlink:href="#TimesNewRomanPSMT-44" transform="translate(188.875 0)"/>
     <use xlink:href="#TimesNewRomanPSMT-4f" transform="translate(233.265625 0)"/>
     <use xlink:href="#TimesNewRomanPSMT-3" transform="translate(261.046875 0)"/>
     <use xlink:href="#TimesNewRomanPSMT-44" transform="translate(286.046875 0)"/>
     <use xlink:href="#TimesNewRomanPSMT-57" transform="translate(330.4375 0)"/>
     <use xlink:href="#TimesNewRomanPSMT-57" transform="translate(358.21875 0)"/>
     <use xlink:href="#TimesNewRomanPSMT-48" transform="translate(386 0)"/>
     <use xlink:href="#TimesNewRomanPSMT-51" transform="translate(430.390625 0)"/>
     <use xlink:href="#TimesNewRomanPSMT-57" transform="translate(480.390625 0)"/>
     <use xlink:href="#TimesNewRomanPSMT-4c" transform="translate(508.171875 0)"/>
     <use xlink:href="#TimesNewRomanPSMT-52" transform="translate(535.953125 0)"/>
     <use xlink:href="#TimesNewRomanPSMT-51" transform="translate(585.953125 0)"/>
    </g>
   </g>
   <g id="text_14">
    <!-- Temporal transformer -->
    <g style="fill: #1a202c" transform="translate(232.8585 88.060779) scale(0.08 -0.08)">
     <defs>
      <path id="TimesNewRomanPSMT-37" d="M 3703 4238 
L 3750 3244 
L 3631 3244 
Q 3597 3506 3538 3619 
Q 3441 3800 3280 3886 
Q 3119 3972 2856 3972 
L 2259 3972 
L 2259 734 
Q 2259 344 2344 247 
Q 2463 116 2709 116 
L 2856 116 
L 2856 0 
L 1059 0 
L 1059 116 
L 1209 116 
Q 1478 116 1591 278 
Q 1659 378 1659 734 
L 1659 3972 
L 1150 3972 
Q 853 3972 728 3928 
Q 566 3869 450 3700 
Q 334 3531 313 3244 
L 194 3244 
L 244 4238 
L 3703 4238 
z
" transform="scale(0.015625)"/>
     </defs>
     <use xlink:href="#TimesNewRomanPSMT-37"/>
     <use xlink:href="#TimesNewRomanPSMT-48" transform="translate(54.09375 0)"/>
     <use xlink:href="#TimesNewRomanPSMT-50" transform="translate(98.484375 0)"/>
     <use xlink:href="#TimesNewRomanPSMT-53" transform="translate(176.265625 0)"/>
     <use xlink:href="#TimesNewRomanPSMT-52" transform="translate(226.265625 0)"/>
     <use xlink:href="#TimesNewRomanPSMT-55" transform="translate(276.265625 0)"/>
     <use xlink:href="#TimesNewRomanPSMT-44" transform="translate(309.5625 0)"/>
     <use xlink:href="#TimesNewRomanPSMT-4f" transform="translate(353.953125 0)"/>
     <use xlink:href="#TimesNewRomanPSMT-3" transform="translate(381.734375 0)"/>
     <use xlink:href="#TimesNewRomanPSMT-57" transform="translate(406.734375 0)"/>
     <use xlink:href="#TimesNewRomanPSMT-55" transform="translate(434.515625 0)"/>
     <use xlink:href="#TimesNewRomanPSMT-44" transform="translate(467.8125 0)"/>
     <use xlink:href="#TimesNewRomanPSMT-51" transform="translate(512.203125 0)"/>
     <use xlink:href="#TimesNewRomanPSMT-56" transform="translate(562.203125 0)"/>
     <use xlink:href="#TimesNewRomanPSMT-49" transform="translate(601.125 0)"/>
     <use xlink:href="#TimesNewRomanPSMT-52" transform="translate(634.421875 0)"/>
     <use xlink:href="#TimesNewRomanPSMT-55" transform="translate(684.421875 0)"/>
     <use xlink:href="#TimesNewRomanPSMT-50" transform="translate(717.71875 0)"/>
     <use xlink:href="#TimesNewRomanPSMT-48" transform="translate(795.5 0)"/>
     <use xlink:href="#TimesNewRomanPSMT-55" transform="translate(839.890625 0)"/>
    </g>
   </g>
   <g id="text_15">
    <!-- lag attention -->
    <g style="fill: #4a5568" transform="translate(251.382422 95.37651) scale(0.066 -0.066)">
     <use xlink:href="#TimesNewRomanPSMT-4f"/>
     <use xlink:href="#TimesNewRomanPSMT-44" transform="translate(27.78125 0)"/>
     <use xlink:href="#TimesNewRomanPSMT-4a" transform="translate(72.171875 0)"/>
     <use xlink:href="#TimesNewRomanPSMT-3" transform="translate(122.171875 0)"/>
     <use xlink:href="#TimesNewRomanPSMT-44" transform="translate(147.171875 0)"/>
     <use xlink:href="#TimesNewRomanPSMT-57" transform="translate(191.5625 0)"/>
     <use xlink:href="#TimesNewRomanPSMT-57" transform="translate(219.34375 0)"/>
     <use xlink:href="#TimesNewRomanPSMT-48" transform="translate(247.125 0)"/>
     <use xlink:href="#TimesNewRomanPSMT-51" transform="translate(291.515625 0)"/>
     <use xlink:href="#TimesNewRomanPSMT-57" transform="translate(341.515625 0)"/>
     <use xlink:href="#TimesNewRomanPSMT-4c" transform="translate(369.296875 0)"/>
     <use xlink:href="#TimesNewRomanPSMT-52" transform="translate(397.078125 0)"/>
     <use xlink:href="#TimesNewRomanPSMT-51" transform="translate(447.078125 0)"/>
    </g>
   </g>
   <g id="text_16">
    <!-- Gated parallel fusion -->
    <g style="fill: #1a202c" transform="translate(185.13825 127.977579) scale(0.08 -0.08)">
     <use xlink:href="#TimesNewRomanPSMT-2a"/>
     <use xlink:href="#TimesNewRomanPSMT-44" transform="translate(72.21875 0)"/>
     <use xlink:href="#TimesNewRomanPSMT-57" transform="translate(116.609375 0)"/>
     <use xlink:href="#TimesNewRomanPSMT-48" transform="translate(144.390625 0)"/>
     <use xlink:href="#TimesNewRomanPSMT-47" transform="translate(188.78125 0)"/>
     <use xlink:href="#TimesNewRomanPSMT-3" transform="translate(238.78125 0)"/>
     <use xlink:href="#TimesNewRomanPSMT-53" transform="translate(263.78125 0)"/>
     <use xlink:href="#TimesNewRomanPSMT-44" transform="translate(313.78125 0)"/>
     <use xlink:href="#TimesNewRomanPSMT-55" transform="translate(358.171875 0)"/>
     <use xlink:href="#TimesNewRomanPSMT-44" transform="translate(391.46875 0)"/>
     <use xlink:href="#TimesNewRomanPSMT-4f" transform="translate(435.859375 0)"/>
     <use xlink:href="#TimesNewRomanPSMT-4f" transform="translate(463.640625 0)"/>
     <use xlink:href="#TimesNewRomanPSMT-48" transform="translate(491.421875 0)"/>
     <use xlink:href="#TimesNewRomanPSMT-4f" transform="translate(535.8125 0)"/>
     <use xlink:href="#TimesNewRomanPSMT-3" transform="translate(563.59375 0)"/>
     <use xlink:href="#TimesNewRomanPSMT-49" transform="translate(588.59375 0)"/>
     <use xlink:href="#TimesNewRomanPSMT-58" transform="translate(621.890625 0)"/>
     <use xlink:href="#TimesNewRomanPSMT-56" transform="translate(671.890625 0)"/>
     <use xlink:href="#TimesNewRomanPSMT-4c" transform="translate(710.8125 0)"/>
     <use xlink:href="#TimesNewRomanPSMT-52" transform="translate(738.59375 0)"/>
     <use xlink:href="#TimesNewRomanPSMT-51" transform="translate(788.59375 0)"/>
    </g>
   </g>
   <g id="text_17">
    <!-- spatial + temporal branches -->
    <g style="fill: #4a5568" transform="translate(182.27475 135.29331) scale(0.066 -0.066)">
     <use xlink:href="#TimesNewRomanPSMT-56"/>
     <use xlink:href="#TimesNewRomanPSMT-53" transform="translate(38.921875 0)"/>
     <use xlink:href="#TimesNewRomanPSMT-44" transform="translate(88.921875 0)"/>
     <use xlink:href="#TimesNewRomanPSMT-57" transform="translate(133.3125 0)"/>
     <use xlink:href="#TimesNewRomanPSMT-4c" transform="translate(161.09375 0)"/>
     <use xlink:href="#TimesNewRomanPSMT-44" transform="translate(188.875 0)"/>
     <use xlink:href="#TimesNewRomanPSMT-4f" transform="translate(233.265625 0)"/>
     <use xlink:href="#TimesNewRomanPSMT-3" transform="translate(261.046875 0)"/>
     <use xlink:href="#TimesNewRomanPSMT-e" transform="translate(286.046875 0)"/>
     <use xlink:href="#TimesNewRomanPSMT-3" transform="translate(342.4375 0)"/>
     <use xlink:href="#TimesNewRomanPSMT-57" transform="translate(367.4375 0)"/>
     <use xlink:href="#TimesNewRomanPSMT-48" transform="translate(395.21875 0)"/>
     <use xlink:href="#TimesNewRomanPSMT-50" transform="translate(439.609375 0)"/>
     <use xlink:href="#TimesNewRomanPSMT-53" transform="translate(517.390625 0)"/>
     <use xlink:href="#TimesNewRomanPSMT-52" transform="translate(567.390625 0)"/>
     <use xlink:href="#TimesNewRomanPSMT-55" transform="translate(617.390625 0)"/>
     <use xlink:href="#TimesNewRomanPSMT-44" transform="translate(650.6875 0)"/>
     <use xlink:href="#TimesNewRomanPSMT-4f" transform="translate(695.078125 0)"/>
     <use xlink:href="#TimesNewRomanPSMT-3" transform="translate(722.859375 0)"/>
     <use xlink:href="#TimesNewRomanPSMT-45" transform="translate(747.859375 0)"/>
     <use xlink:href="#TimesNewRomanPSMT-55" transform="translate(797.859375 0)"/>
     <use xlink:href="#TimesNewRomanPSMT-44" transform="translate(831.15625 0)"/>
     <use xlink:href="#TimesNewRomanPSMT-51" transform="translate(875.546875 0)"/>
     <use xlink:href="#TimesNewRomanPSMT-46" transform="translate(925.546875 0)"/>
     <use xlink:href="#TimesNewRomanPSMT-4b" transform="translate(969.9375 0)"/>
     <use xlink:href="#TimesNewRomanPSMT-48" transform="translate(1019.9375 0)"/>
     <use xlink:href="#TimesNewRomanPSMT-56" transform="translate(1064.328125 0)"/>
    </g>
   </g>
   <g id="text_18">
    <!-- Demand head -->
    <g style="fill: #1a202c" transform="translate(340.5435 54.796779) scale(0.08 -0.08)">
     <defs>
      <path id="TimesNewRomanPSMT-27" d="M 109 0 
L 109 116 
L 269 116 
Q 538 116 650 288 
Q 719 391 719 750 
L 719 3488 
Q 719 3884 631 3984 
Q 509 4122 269 4122 
L 109 4122 
L 109 4238 
L 1834 4238 
Q 2784 4238 3279 4022 
Q 3775 3806 4076 3303 
Q 4378 2800 4378 2141 
Q 4378 1256 3841 663 
Q 3238 0 2003 0 
L 109 0 
z
M 1319 306 
Q 1716 219 1984 219 
Q 2709 219 3187 728 
Q 3666 1238 3666 2109 
Q 3666 2988 3187 3494 
Q 2709 4000 1959 4000 
Q 1678 4000 1319 3909 
L 1319 306 
z
" transform="scale(0.015625)"/>
     </defs>
     <use xlink:href="#TimesNewRomanPSMT-27"/>
     <use xlink:href="#TimesNewRomanPSMT-48" transform="translate(72.21875 0)"/>
     <use xlink:href="#TimesNewRomanPSMT-50" transform="translate(116.609375 0)"/>
     <use xlink:href="#TimesNewRomanPSMT-44" transform="translate(194.390625 0)"/>
     <use xlink:href="#TimesNewRomanPSMT-51" transform="translate(238.78125 0)"/>
     <use xlink:href="#TimesNewRomanPSMT-47" transform="translate(288.78125 0)"/>
     <use xlink:href="#TimesNewRomanPSMT-3" transform="translate(338.78125 0)"/>
     <use xlink:href="#TimesNewRomanPSMT-4b" transform="translate(363.78125 0)"/>
     <use xlink:href="#TimesNewRomanPSMT-48" transform="translate(413.78125 0)"/>
     <use xlink:href="#TimesNewRomanPSMT-44" transform="translate(458.171875 0)"/>
     <use xlink:href="#TimesNewRomanPSMT-47" transform="translate(502.5625 0)"/>
    </g>
   </g>
   <g id="text_19">
    <!-- 9 regional MW -->
    <g style="fill: #4a5568" transform="translate(342.484547 62.11251) scale(0.066 -0.066)">
     <defs>
      <path id="TimesNewRomanPSMT-1c" d="M 338 -88 
L 338 28 
Q 744 34 1094 217 
Q 1444 400 1770 856 
Q 2097 1313 2225 1859 
Q 1734 1544 1338 1544 
Q 891 1544 572 1889 
Q 253 2234 253 2806 
Q 253 3363 572 3797 
Q 956 4325 1575 4325 
Q 2097 4325 2469 3894 
Q 2925 3359 2925 2575 
Q 2925 1869 2578 1258 
Q 2231 647 1613 244 
Q 1109 -88 516 -88 
L 338 -88 
z
M 2275 2091 
Q 2331 2497 2331 2741 
Q 2331 3044 2228 3395 
Q 2125 3747 1936 3934 
Q 1747 4122 1506 4122 
Q 1228 4122 1018 3872 
Q 809 3622 809 3128 
Q 809 2469 1088 2097 
Q 1291 1828 1588 1828 
Q 1731 1828 1928 1897 
Q 2125 1966 2275 2091 
z
" transform="scale(0.015625)"/>
      <path id="TimesNewRomanPSMT-30" d="M 2619 0 
L 981 3566 
L 981 734 
Q 981 344 1066 247 
Q 1181 116 1431 116 
L 1581 116 
L 1581 0 
L 106 0 
L 106 116 
L 256 116 
Q 525 116 638 278 
Q 706 378 706 734 
L 706 3503 
Q 706 3784 644 3909 
Q 600 4000 483 4061 
Q 366 4122 106 4122 
L 106 4238 
L 1306 4238 
L 2844 922 
L 4356 4238 
L 5556 4238 
L 5556 4122 
L 5409 4122 
Q 5138 4122 5025 3959 
Q 4956 3859 4956 3503 
L 4956 734 
Q 4956 344 5044 247 
Q 5159 116 5409 116 
L 5556 116 
L 5556 0 
L 3756 0 
L 3756 116 
L 3906 116 
Q 4178 116 4288 278 
Q 4356 378 4356 734 
L 4356 3566 
L 2722 0 
L 2619 0 
z
" transform="scale(0.015625)"/>
      <path id="TimesNewRomanPSMT-3a" d="M 5991 4238 
L 5991 4122 
Q 5825 4122 5722 4062 
Q 5619 4003 5525 3841 
Q 5463 3731 5328 3319 
L 4147 -97 
L 4022 -97 
L 3056 2613 
L 2097 -97 
L 1984 -97 
L 725 3422 
Q 584 3816 547 3888 
Q 484 4006 376 4064 
Q 269 4122 84 4122 
L 84 4238 
L 1653 4238 
L 1653 4122 
L 1578 4122 
Q 1413 4122 1325 4047 
Q 1238 3972 1238 3866 
Q 1238 3756 1375 3363 
L 2209 984 
L 2913 3006 
L 2788 3363 
L 2688 3647 
Q 2622 3803 2541 3922 
Q 2500 3981 2441 4022 
Q 2363 4078 2284 4103 
Q 2225 4122 2097 4122 
L 2097 4238 
L 3747 4238 
L 3747 4122 
L 3634 4122 
Q 3459 4122 3378 4047 
Q 3297 3972 3297 3844 
Q 3297 3684 3438 3288 
L 4250 984 
L 5056 3319 
Q 5194 3706 5194 3856 
Q 5194 3928 5148 3990 
Q 5103 4053 5034 4078 
Q 4916 4122 4725 4122 
L 4725 4238 
L 5991 4238 
z
" transform="scale(0.015625)"/>
     </defs>
     <use xlink:href="#TimesNewRomanPSMT-1c"/>
     <use xlink:href="#TimesNewRomanPSMT-3" transform="translate(50 0)"/>
     <use xlink:href="#TimesNewRomanPSMT-55" transform="translate(75 0)"/>
     <use xlink:href="#TimesNewRomanPSMT-48" transform="translate(108.296875 0)"/>
     <use xlink:href="#TimesNewRomanPSMT-4a" transform="translate(152.6875 0)"/>
     <use xlink:href="#TimesNewRomanPSMT-4c" transform="translate(202.6875 0)"/>
     <use xlink:href="#TimesNewRomanPSMT-52" transform="translate(230.46875 0)"/>
     <use xlink:href="#TimesNewRomanPSMT-51" transform="translate(280.46875 0)"/>
     <use xlink:href="#TimesNewRomanPSMT-44" transform="translate(330.46875 0)"/>
     <use xlink:href="#TimesNewRomanPSMT-4f" transform="translate(374.859375 0)"/>
     <use xlink:href="#TimesNewRomanPSMT-3" transform="translate(402.640625 0)"/>
     <use xlink:href="#TimesNewRomanPSMT-30" transform="translate(427.640625 0)"/>
     <use xlink:href="#TimesNewRomanPSMT-3a" transform="translate(516.5625 0)"/>
    </g>
   </g>
   <g id="text_20">
    <!-- Stress head -->
    <g style="fill: #1a202c" transform="translate(344.537875 114.671979) scale(0.08 -0.08)">
     <defs>
      <path id="TimesNewRomanPSMT-36" d="M 2934 4334 
L 2934 2869 
L 2819 2869 
Q 2763 3291 2617 3541 
Q 2472 3791 2203 3937 
Q 1934 4084 1647 4084 
Q 1322 4084 1109 3886 
Q 897 3688 897 3434 
Q 897 3241 1031 3081 
Q 1225 2847 1953 2456 
Q 2547 2138 2764 1967 
Q 2981 1797 3098 1565 
Q 3216 1334 3216 1081 
Q 3216 600 2842 251 
Q 2469 -97 1881 -97 
Q 1697 -97 1534 -69 
Q 1438 -53 1133 45 
Q 828 144 747 144 
Q 669 144 623 97 
Q 578 50 556 -97 
L 441 -97 
L 441 1356 
L 556 1356 
Q 638 900 775 673 
Q 913 447 1195 297 
Q 1478 147 1816 147 
Q 2206 147 2432 353 
Q 2659 559 2659 841 
Q 2659 997 2573 1156 
Q 2488 1316 2306 1453 
Q 2184 1547 1640 1851 
Q 1097 2156 867 2337 
Q 638 2519 519 2737 
Q 400 2956 400 3219 
Q 400 3675 750 4004 
Q 1100 4334 1641 4334 
Q 1978 4334 2356 4169 
Q 2531 4091 2603 4091 
Q 2684 4091 2736 4139 
Q 2788 4188 2819 4334 
L 2934 4334 
z
" transform="scale(0.015625)"/>
     </defs>
     <use xlink:href="#TimesNewRomanPSMT-36"/>
     <use xlink:href="#TimesNewRomanPSMT-57" transform="translate(55.609375 0)"/>
     <use xlink:href="#TimesNewRomanPSMT-55" transform="translate(83.390625 0)"/>
     <use xlink:href="#TimesNewRomanPSMT-48" transform="translate(116.6875 0)"/>
     <use xlink:href="#TimesNewRomanPSMT-56" transform="translate(161.078125 0)"/>
     <use xlink:href="#TimesNewRomanPSMT-56" transform="translate(200 0)"/>
     <use xlink:href="#TimesNewRomanPSMT-3" transform="translate(238.921875 0)"/>
     <use xlink:href="#TimesNewRomanPSMT-4b" transform="translate(263.921875 0)"/>
     <use xlink:href="#TimesNewRomanPSMT-48" transform="translate(313.921875 0)"/>
     <use xlink:href="#TimesNewRomanPSMT-44" transform="translate(358.3125 0)"/>
     <use xlink:href="#TimesNewRomanPSMT-47" transform="translate(402.703125 0)"/>
    </g>
   </g>
   <g id="text_21">
    <!-- graph-level OSI -->
    <g style="fill: #4a5568" transform="translate(341.478047 121.98771) scale(0.066 -0.066)">
     <defs>
      <path id="TimesNewRomanPSMT-10" d="M 259 1672 
L 1875 1672 
L 1875 1200 
L 259 1200 
L 259 1672 
z
" transform="scale(0.015625)"/>
      <path id="TimesNewRomanPSMT-59" d="M 53 2863 
L 1400 2863 
L 1400 2747 
L 1313 2747 
Q 1191 2747 1127 2687 
Q 1063 2628 1063 2528 
Q 1063 2419 1128 2269 
L 1794 688 
L 2463 2328 
Q 2534 2503 2534 2594 
Q 2534 2638 2509 2666 
Q 2475 2713 2422 2730 
Q 2369 2747 2206 2747 
L 2206 2863 
L 3141 2863 
L 3141 2747 
Q 2978 2734 2916 2681 
Q 2806 2588 2719 2369 
L 1703 -88 
L 1575 -88 
L 553 2328 
Q 484 2497 421 2570 
Q 359 2644 263 2694 
Q 209 2722 53 2747 
L 53 2863 
z
" transform="scale(0.015625)"/>
      <path id="TimesNewRomanPSMT-32" d="M 2341 4334 
Q 3166 4334 3770 3707 
Q 4375 3081 4375 2144 
Q 4375 1178 3765 540 
Q 3156 -97 2291 -97 
Q 1416 -97 820 525 
Q 225 1147 225 2134 
Q 225 3144 913 3781 
Q 1509 4334 2341 4334 
z
M 2281 4106 
Q 1713 4106 1369 3684 
Q 941 3159 941 2147 
Q 941 1109 1384 550 
Q 1725 125 2284 125 
Q 2881 125 3270 590 
Q 3659 1056 3659 2059 
Q 3659 3147 3231 3681 
Q 2888 4106 2281 4106 
z
" transform="scale(0.015625)"/>
      <path id="TimesNewRomanPSMT-2c" d="M 1975 116 
L 1975 0 
L 159 0 
L 159 116 
L 309 116 
Q 572 116 691 269 
Q 766 369 766 750 
L 766 3488 
Q 766 3809 725 3913 
Q 694 3991 597 4047 
Q 459 4122 309 4122 
L 159 4122 
L 159 4238 
L 1975 4238 
L 1975 4122 
L 1822 4122 
Q 1563 4122 1444 3969 
Q 1366 3869 1366 3488 
L 1366 750 
Q 1366 428 1406 325 
Q 1438 247 1538 191 
Q 1672 116 1822 116 
L 1975 116 
z
" transform="scale(0.015625)"/>
     </defs>
     <use xlink:href="#TimesNewRomanPSMT-4a"/>
     <use xlink:href="#TimesNewRomanPSMT-55" transform="translate(50 0)"/>
     <use xlink:href="#TimesNewRomanPSMT-44" transform="translate(83.296875 0)"/>
     <use xlink:href="#TimesNewRomanPSMT-53" transform="translate(127.6875 0)"/>
     <use xlink:href="#TimesNewRomanPSMT-4b" transform="translate(177.6875 0)"/>
     <use xlink:href="#TimesNewRomanPSMT-10" transform="translate(227.6875 0)"/>
     <use xlink:href="#TimesNewRomanPSMT-4f" transform="translate(260.984375 0)"/>
     <use xlink:href="#TimesNewRomanPSMT-48" transform="translate(288.765625 0)"/>
     <use xlink:href="#TimesNewRomanPSMT-59" transform="translate(333.15625 0)"/>
     <use xlink:href="#TimesNewRomanPSMT-48" transform="translate(383.15625 0)"/>
     <use xlink:href="#TimesNewRomanPSMT-4f" transform="translate(427.546875 0)"/>
     <use xlink:href="#TimesNewRomanPSMT-3" transform="translate(455.328125 0)"/>
     <use xlink:href="#TimesNewRomanPSMT-32" transform="translate(480.328125 0)"/>
     <use xlink:href="#TimesNewRomanPSMT-36" transform="translate(552.546875 0)"/>
     <use xlink:href="#TimesNewRomanPSMT-2c" transform="translate(608.15625 0)"/>
    </g>
   </g>
  </g>
 </g>
 <defs>
  <clipPath id="p81891693de">
   <rect x="7.2" y="7.2" width="398.97" height="150.7968"/>
  </clipPath>
 </defs>
</svg>
