<?xml version="1.0" encoding="utf-8" standalone="no"?>
<!DOCTYPE svg PUBLIC "-//W3C//DTD SVG 1.1//EN"
  "http://www.w3.org/Graphics/SVG/1.1/DTD/svg11.dtd">
<svg xmlns:xlink="http://www.w3.org/1999/xlink" width="489.991953pt" height="244.636508pt" viewBox="0 0 489.991953 244.636508" xmlns="http://www.w3.org/2000/svg" version="1.1">
 <metadata>
  <rdf:RDF xmlns:dc="http://purl.org/dc/elements/1.1/" xmlns:cc="http://creativecommons.org/ns#" xmlns:rdf="http://www.w3.org/1999/02/22-rdf-syntax-ns#">
   <cc:Work>
    <dc:type rdf:resource="http://purl.org/dc/dcmitype/StillImage"/>
    <dc:date>2026-07-07T01:48:36.374800</dc:date>
    <dc:format>image/svg+xml</dc:format>
    <dc:creator>
     <cc:Agent>
      <dc:title>Matplotlib v3.11.0, https://matplotlib.org/</dc:title>
     </cc:Agent>
    </dc:creator>
   </cc:Work>
  </rdf:RDF>
 </metadata>
 <defs>
  <style type="text/css">*{stroke-linejoin: round; stroke-linecap: butt}</style>
 </defs>
 <g id="figure_1">
  <g id="patch_1">
   <path d="M 0 244.636508 
L 489.991953 244.636508 
L 489.991953 0 
L 0 0 
z
" style="fill: #ffffff"/>
  </g>
  <g id="axes_1">
   <g id="patch_2">
    <path d="M 47.551953 209.151937 
L 482.791953 209.151937 
L 482.791953 20.655937 
L 47.551953 20.655937 
z
" style="fill: #ffffff"/>
   </g>
   <g id="matplotlib.axis_1">
    <g id="xtick_1">
     <g id="line2d_1">
      <defs>
       <path id="m8a4b833f5d" d="M 0 0 
L 0 3.5 
" style="stroke: #000000; stroke-width: 0.8"/>
      </defs>
      <g>
       <use xlink:href="#m8a4b833f5d" x="87.474621" y="209.151937" style="stroke: #000000; stroke-width: 0.8"/>
      </g>
     </g>
     <g id="text_1">
      <!-- t−6 -->
      <g transform="translate(81.436886 222.392172) scale(0.09 -0.09)">
       <defs>
        <path id="TimesNewRomanPSMT-57" d="M 1031 3803 
L 1031 2863 
L 1700 2863 
L 1700 2644 
L 1031 2644 
L 1031 788 
Q 1031 509 1111 412 
Q 1191 316 1316 316 
Q 1419 316 1516 380 
Q 1613 444 1666 569 
L 1788 569 
Q 1678 263 1478 108 
Q 1278 -47 1066 -47 
Q 922 -47 784 33 
Q 647 113 581 261 
Q 516 409 516 719 
L 516 2644 
L 63 2644 
L 63 2747 
Q 234 2816 414 2980 
Q 594 3144 734 3369 
Q 806 3488 934 3803 
L 1031 3803 
z
" transform="scale(0.015625)"/>
        <path id="TimesNewRomanPSMT-ed" d="M 3484 2000 
L 116 2000 
L 116 2256 
L 3484 2256 
L 3484 2000 
z
" transform="scale(0.015625)"/>
        <path id="TimesNewRomanPSMT-19" d="M 2869 4325 
L 2869 4209 
Q 2456 4169 2195 4045 
Q 1934 3922 1679 3669 
Q 1425 3416 1258 3105 
Q 1091 2794 978 2366 
Q 1428 2675 1881 2675 
Q 2316 2675 2634 2325 
Q 2953 1975 2953 1425 
Q 2953 894 2631 456 
Q 2244 -75 1606 -75 
Q 1172 -75 869 213 
Q 275 772 275 1663 
Q 275 2231 503 2743 
Q 731 3256 1154 3653 
Q 1578 4050 1965 4187 
Q 2353 4325 2688 4325 
L 2869 4325 
z
M 925 2138 
Q 869 1716 869 1456 
Q 869 1156 980 804 
Q 1091 453 1309 247 
Q 1469 100 1697 100 
Q 1969 100 2183 356 
Q 2397 613 2397 1088 
Q 2397 1622 2184 2012 
Q 1972 2403 1581 2403 
Q 1463 2403 1327 2353 
Q 1191 2303 925 2138 
z
" transform="scale(0.015625)"/>
       </defs>
       <use xlink:href="#TimesNewRomanPSMT-57"/>
       <use xlink:href="#TimesNewRomanPSMT-ed" transform="translate(27.78125 0)"/>
       <use xlink:href="#TimesNewRomanPSMT-19" transform="translate(84.171875 0)"/>
      </g>
     </g>
    </g>
    <g id="xtick_2">
     <g id="line2d_2">
      <g>
       <use xlink:href="#m8a4b833f5d" x="146.707065" y="209.151937" style="stroke: #000000; stroke-width: 0.8"/>
      </g>
     </g>
     <g id="text_2">
      <!-- t−5 -->
      <g transform="translate(140.66933 222.392172) scale(0.09 -0.09)">
       <defs>
        <path id="TimesNewRomanPSMT-18" d="M 2778 4238 
L 2534 3706 
L 1259 3706 
L 981 3138 
Q 1809 3016 2294 2522 
Q 2709 2097 2709 1522 
Q 2709 1188 2573 903 
Q 2438 619 2231 419 
Q 2025 219 1772 97 
Q 1413 -75 1034 -75 
Q 653 -75 479 54 
Q 306 184 306 341 
Q 306 428 378 495 
Q 450 563 559 563 
Q 641 563 702 538 
Q 763 513 909 409 
Q 1144 247 1384 247 
Q 1750 247 2026 523 
Q 2303 800 2303 1197 
Q 2303 1581 2056 1914 
Q 1809 2247 1375 2428 
Q 1034 2569 447 2591 
L 1259 4238 
L 2778 4238 
z
" transform="scale(0.015625)"/>
       </defs>
       <use xlink:href="#TimesNewRomanPSMT-57"/>
       <use xlink:href="#TimesNewRomanPSMT-ed" transform="translate(27.78125 0)"/>
       <use xlink:href="#TimesNewRomanPSMT-18" transform="translate(84.171875 0)"/>
      </g>
     </g>
    </g>
    <g id="xtick_3">
     <g id="line2d_3">
      <g>
       <use xlink:href="#m8a4b833f5d" x="205.939509" y="209.151937" style="stroke: #000000; stroke-width: 0.8"/>
      </g>
     </g>
     <g id="text_3">
      <!-- t−4 -->
      <g transform="translate(199.901775 222.392172) scale(0.09 -0.09)">
       <defs>
        <path id="TimesNewRomanPSMT-17" d="M 2978 1563 
L 2978 1119 
L 2409 1119 
L 2409 0 
L 1894 0 
L 1894 1119 
L 100 1119 
L 100 1519 
L 2066 4325 
L 2409 4325 
L 2409 1563 
L 2978 1563 
z
M 1894 1563 
L 1894 3666 
L 406 1563 
L 1894 1563 
z
" transform="scale(0.015625)"/>
       </defs>
       <use xlink:href="#TimesNewRomanPSMT-57"/>
       <use xlink:href="#TimesNewRomanPSMT-ed" transform="translate(27.78125 0)"/>
       <use xlink:href="#TimesNewRomanPSMT-17" transform="translate(84.171875 0)"/>
      </g>
     </g>
    </g>
    <g id="xtick_4">
     <g id="line2d_4">
      <g>
       <use xlink:href="#m8a4b833f5d" x="265.171953" y="209.151937" style="stroke: #000000; stroke-width: 0.8"/>
      </g>
     </g>
     <g id="text_4">
      <!-- t−3 -->
      <g transform="translate(259.134219 222.392172) scale(0.09 -0.09)">
       <defs>
        <path id="TimesNewRomanPSMT-16" d="M 325 3431 
Q 506 3859 782 4092 
Q 1059 4325 1472 4325 
Q 1981 4325 2253 3994 
Q 2459 3747 2459 3466 
Q 2459 3003 1878 2509 
Q 2269 2356 2469 2072 
Q 2669 1788 2669 1403 
Q 2669 853 2319 450 
Q 1863 -75 997 -75 
Q 569 -75 414 31 
Q 259 138 259 259 
Q 259 350 332 419 
Q 406 488 509 488 
Q 588 488 669 463 
Q 722 447 909 348 
Q 1097 250 1169 231 
Q 1284 197 1416 197 
Q 1734 197 1970 444 
Q 2206 691 2206 1028 
Q 2206 1275 2097 1509 
Q 2016 1684 1919 1775 
Q 1784 1900 1550 2001 
Q 1316 2103 1072 2103 
L 972 2103 
L 972 2197 
Q 1219 2228 1467 2375 
Q 1716 2522 1828 2728 
Q 1941 2934 1941 3181 
Q 1941 3503 1739 3701 
Q 1538 3900 1238 3900 
Q 753 3900 428 3381 
L 325 3431 
z
" transform="scale(0.015625)"/>
       </defs>
       <use xlink:href="#TimesNewRomanPSMT-57"/>
       <use xlink:href="#TimesNewRomanPSMT-ed" transform="translate(27.78125 0)"/>
       <use xlink:href="#TimesNewRomanPSMT-16" transform="translate(84.171875 0)"/>
      </g>
     </g>
    </g>
    <g id="xtick_5">
     <g id="line2d_5">
      <g>
       <use xlink:href="#m8a4b833f5d" x="324.404397" y="209.151937" style="stroke: #000000; stroke-width: 0.8"/>
      </g>
     </g>
     <g id="text_5">
      <!-- t−2 -->
      <g transform="translate(318.366663 222.392172) scale(0.09 -0.09)">
       <defs>
        <path id="TimesNewRomanPSMT-15" d="M 2934 816 
L 2638 0 
L 138 0 
L 138 116 
Q 1241 1122 1691 1759 
Q 2141 2397 2141 2925 
Q 2141 3328 1894 3587 
Q 1647 3847 1303 3847 
Q 991 3847 742 3664 
Q 494 3481 375 3128 
L 259 3128 
Q 338 3706 661 4015 
Q 984 4325 1469 4325 
Q 1984 4325 2329 3994 
Q 2675 3663 2675 3213 
Q 2675 2891 2525 2569 
Q 2294 2063 1775 1497 
Q 997 647 803 472 
L 1909 472 
Q 2247 472 2383 497 
Q 2519 522 2628 598 
Q 2738 675 2819 816 
L 2934 816 
z
" transform="scale(0.015625)"/>
       </defs>
       <use xlink:href="#TimesNewRomanPSMT-57"/>
       <use xlink:href="#TimesNewRomanPSMT-ed" transform="translate(27.78125 0)"/>
       <use xlink:href="#TimesNewRomanPSMT-15" transform="translate(84.171875 0)"/>
      </g>
     </g>
    </g>
    <g id="xtick_6">
     <g id="line2d_6">
      <g>
       <use xlink:href="#m8a4b833f5d" x="383.636842" y="209.151937" style="stroke: #000000; stroke-width: 0.8"/>
      </g>
     </g>
     <g id="text_6">
      <!-- t−1 -->
      <g transform="translate(377.599107 222.392172) scale(0.09 -0.09)">
       <defs>
        <path id="TimesNewRomanPSMT-14" d="M 750 3822 
L 1781 4325 
L 1884 4325 
L 1884 747 
Q 1884 391 1914 303 
Q 1944 216 2037 169 
Q 2131 122 2419 116 
L 2419 0 
L 825 0 
L 825 116 
Q 1125 122 1212 167 
Q 1300 213 1334 289 
Q 1369 366 1369 747 
L 1369 3034 
Q 1369 3497 1338 3628 
Q 1316 3728 1258 3775 
Q 1200 3822 1119 3822 
Q 1003 3822 797 3725 
L 750 3822 
z
" transform="scale(0.015625)"/>
       </defs>
       <use xlink:href="#TimesNewRomanPSMT-57"/>
       <use xlink:href="#TimesNewRomanPSMT-ed" transform="translate(27.78125 0)"/>
       <use xlink:href="#TimesNewRomanPSMT-14" transform="translate(84.171875 0)"/>
      </g>
     </g>
    </g>
    <g id="xtick_7">
     <g id="line2d_7">
      <g>
       <use xlink:href="#m8a4b833f5d" x="442.869286" y="209.151937" style="stroke: #000000; stroke-width: 0.8"/>
      </g>
     </g>
     <g id="text_7">
      <!-- t−0 -->
      <g transform="translate(436.831551 222.392172) scale(0.09 -0.09)">
       <defs>
        <path id="TimesNewRomanPSMT-13" d="M 231 2094 
Q 231 2819 450 3342 
Q 669 3866 1031 4122 
Q 1313 4325 1613 4325 
Q 2100 4325 2488 3828 
Q 2972 3213 2972 2159 
Q 2972 1422 2759 906 
Q 2547 391 2217 158 
Q 1888 -75 1581 -75 
Q 975 -75 572 641 
Q 231 1244 231 2094 
z
M 844 2016 
Q 844 1141 1059 588 
Q 1238 122 1591 122 
Q 1759 122 1940 273 
Q 2122 425 2216 781 
Q 2359 1319 2359 2297 
Q 2359 3022 2209 3506 
Q 2097 3866 1919 4016 
Q 1791 4119 1609 4119 
Q 1397 4119 1231 3928 
Q 1006 3669 925 3112 
Q 844 2556 844 2016 
z
" transform="scale(0.015625)"/>
       </defs>
       <use xlink:href="#TimesNewRomanPSMT-57"/>
       <use xlink:href="#TimesNewRomanPSMT-ed" transform="translate(27.78125 0)"/>
       <use xlink:href="#TimesNewRomanPSMT-13" transform="translate(84.171875 0)"/>
      </g>
     </g>
    </g>
    <g id="text_8">
     <!-- lookback lag -->
     <g style="fill: #1a202c" transform="translate(239.485234 235.278305) scale(0.1 -0.1)">
      <defs>
       <path id="TimesNewRomanPSMT-4f" d="M 1184 4444 
L 1184 647 
Q 1184 378 1223 290 
Q 1263 203 1344 158 
Q 1425 113 1647 113 
L 1647 0 
L 244 0 
L 244 113 
Q 441 113 512 153 
Q 584 194 625 287 
Q 666 381 666 647 
L 666 3247 
Q 666 3731 644 3842 
Q 622 3953 573 3993 
Q 525 4034 450 4034 
Q 369 4034 244 3984 
L 191 4094 
L 1044 4444 
L 1184 4444 
z
" transform="scale(0.015625)"/>
       <path id="TimesNewRomanPSMT-52" d="M 1600 2947 
Q 2250 2947 2644 2453 
Q 2978 2031 2978 1484 
Q 2978 1100 2793 706 
Q 2609 313 2286 112 
Q 1963 -88 1566 -88 
Q 919 -88 538 428 
Q 216 863 216 1403 
Q 216 1797 411 2186 
Q 606 2575 925 2761 
Q 1244 2947 1600 2947 
z
M 1503 2744 
Q 1338 2744 1170 2645 
Q 1003 2547 900 2300 
Q 797 2053 797 1666 
Q 797 1041 1045 587 
Q 1294 134 1700 134 
Q 2003 134 2200 384 
Q 2397 634 2397 1244 
Q 2397 2006 2069 2444 
Q 1847 2744 1503 2744 
z
" transform="scale(0.015625)"/>
       <path id="TimesNewRomanPSMT-4e" d="M 1047 4444 
L 1047 1594 
L 1775 2259 
Q 2006 2472 2044 2528 
Q 2069 2566 2069 2603 
Q 2069 2666 2017 2711 
Q 1966 2756 1847 2763 
L 1847 2863 
L 3091 2863 
L 3091 2763 
Q 2834 2756 2664 2684 
Q 2494 2613 2291 2428 
L 1556 1750 
L 2291 822 
Q 2597 438 2703 334 
Q 2853 188 2966 144 
Q 3044 113 3238 113 
L 3238 0 
L 1847 0 
L 1847 113 
Q 1966 116 2008 148 
Q 2050 181 2050 241 
Q 2050 313 1925 472 
L 1047 1594 
L 1047 644 
Q 1047 366 1086 278 
Q 1125 191 1197 153 
Q 1269 116 1509 113 
L 1509 0 
L 53 0 
L 53 113 
Q 272 113 381 166 
Q 447 200 481 272 
Q 528 375 528 628 
L 528 3234 
Q 528 3731 506 3842 
Q 484 3953 434 3995 
Q 384 4038 303 4038 
Q 238 4038 106 3984 
L 53 4094 
L 903 4444 
L 1047 4444 
z
" transform="scale(0.015625)"/>
       <path id="TimesNewRomanPSMT-45" d="M 984 2369 
Q 1400 2947 1881 2947 
Q 2322 2947 2650 2570 
Q 2978 2194 2978 1541 
Q 2978 778 2472 313 
Q 2038 -88 1503 -88 
Q 1253 -88 995 3 
Q 738 94 469 275 
L 469 3241 
Q 469 3728 445 3840 
Q 422 3953 372 3993 
Q 322 4034 247 4034 
Q 159 4034 28 3984 
L -16 4094 
L 844 4444 
L 984 4444 
L 984 2369 
z
M 984 2169 
L 984 456 
Q 1144 300 1314 220 
Q 1484 141 1663 141 
Q 1947 141 2192 453 
Q 2438 766 2438 1363 
Q 2438 1913 2192 2208 
Q 1947 2503 1634 2503 
Q 1469 2503 1303 2419 
Q 1178 2356 984 2169 
z
" transform="scale(0.015625)"/>
       <path id="TimesNewRomanPSMT-44" d="M 1822 413 
Q 1381 72 1269 19 
Q 1100 -59 909 -59 
Q 613 -59 420 144 
Q 228 347 228 678 
Q 228 888 322 1041 
Q 450 1253 767 1440 
Q 1084 1628 1822 1897 
L 1822 2009 
Q 1822 2438 1686 2597 
Q 1550 2756 1291 2756 
Q 1094 2756 978 2650 
Q 859 2544 859 2406 
L 866 2225 
Q 866 2081 792 2003 
Q 719 1925 600 1925 
Q 484 1925 411 2006 
Q 338 2088 338 2228 
Q 338 2497 613 2722 
Q 888 2947 1384 2947 
Q 1766 2947 2009 2819 
Q 2194 2722 2281 2516 
Q 2338 2381 2338 1966 
L 2338 994 
Q 2338 584 2353 492 
Q 2369 400 2405 369 
Q 2441 338 2488 338 
Q 2538 338 2575 359 
Q 2641 400 2828 588 
L 2828 413 
Q 2478 -56 2159 -56 
Q 2006 -56 1915 50 
Q 1825 156 1822 413 
z
M 1822 616 
L 1822 1706 
Q 1350 1519 1213 1441 
Q 966 1303 859 1153 
Q 753 1003 753 825 
Q 753 600 887 451 
Q 1022 303 1197 303 
Q 1434 303 1822 616 
z
" transform="scale(0.015625)"/>
       <path id="TimesNewRomanPSMT-46" d="M 2631 1088 
Q 2516 522 2178 217 
Q 1841 -88 1431 -88 
Q 944 -88 581 321 
Q 219 731 219 1428 
Q 219 2103 620 2525 
Q 1022 2947 1584 2947 
Q 2006 2947 2278 2723 
Q 2550 2500 2550 2259 
Q 2550 2141 2473 2067 
Q 2397 1994 2259 1994 
Q 2075 1994 1981 2113 
Q 1928 2178 1911 2362 
Q 1894 2547 1784 2644 
Q 1675 2738 1481 2738 
Q 1169 2738 978 2506 
Q 725 2200 725 1697 
Q 725 1184 976 792 
Q 1228 400 1656 400 
Q 1963 400 2206 609 
Q 2378 753 2541 1131 
L 2631 1088 
z
" transform="scale(0.015625)"/>
       <path id="TimesNewRomanPSMT-3" transform="scale(0.015625)"/>
       <path id="TimesNewRomanPSMT-4a" d="M 966 1044 
Q 703 1172 562 1401 
Q 422 1631 422 1909 
Q 422 2334 742 2640 
Q 1063 2947 1563 2947 
Q 1972 2947 2272 2747 
L 2878 2747 
Q 3013 2747 3034 2739 
Q 3056 2731 3066 2713 
Q 3084 2684 3084 2613 
Q 3084 2531 3069 2500 
Q 3059 2484 3036 2475 
Q 3013 2466 2878 2466 
L 2506 2466 
Q 2681 2241 2681 1891 
Q 2681 1491 2375 1206 
Q 2069 922 1553 922 
Q 1341 922 1119 984 
Q 981 866 932 777 
Q 884 688 884 625 
Q 884 572 936 522 
Q 988 472 1138 450 
Q 1225 438 1575 428 
Q 2219 413 2409 384 
Q 2700 344 2873 169 
Q 3047 -6 3047 -263 
Q 3047 -616 2716 -925 
Q 2228 -1381 1444 -1381 
Q 841 -1381 425 -1109 
Q 191 -953 191 -784 
Q 191 -709 225 -634 
Q 278 -519 444 -313 
Q 466 -284 763 25 
Q 600 122 533 198 
Q 466 275 466 372 
Q 466 481 555 628 
Q 644 775 966 1044 
z
M 1509 2797 
Q 1278 2797 1122 2612 
Q 966 2428 966 2047 
Q 966 1553 1178 1281 
Q 1341 1075 1591 1075 
Q 1828 1075 1981 1253 
Q 2134 1431 2134 1813 
Q 2134 2309 1919 2591 
Q 1759 2797 1509 2797 
z
M 934 0 
Q 788 -159 713 -296 
Q 638 -434 638 -550 
Q 638 -700 819 -813 
Q 1131 -1006 1722 -1006 
Q 2284 -1006 2551 -807 
Q 2819 -609 2819 -384 
Q 2819 -222 2659 -153 
Q 2497 -84 2016 -72 
Q 1313 -53 934 0 
z
" transform="scale(0.015625)"/>
      </defs>
      <use xlink:href="#TimesNewRomanPSMT-4f"/>
      <use xlink:href="#TimesNewRomanPSMT-52" transform="translate(27.78125 0)"/>
      <use xlink:href="#TimesNewRomanPSMT-52" transform="translate(77.78125 0)"/>
      <use xlink:href="#TimesNewRomanPSMT-4e" transform="translate(127.78125 0)"/>
      <use xlink:href="#TimesNewRomanPSMT-45" transform="translate(177.78125 0)"/>
      <use xlink:href="#TimesNewRomanPSMT-44" transform="translate(227.78125 0)"/>
      <use xlink:href="#TimesNewRomanPSMT-46" transform="translate(272.171875 0)"/>
      <use xlink:href="#TimesNewRomanPSMT-4e" transform="translate(316.5625 0)"/>
      <use xlink:href="#TimesNewRomanPSMT-3" transform="translate(366.5625 0)"/>
      <use xlink:href="#TimesNewRomanPSMT-4f" transform="translate(391.5625 0)"/>
      <use xlink:href="#TimesNewRomanPSMT-44" transform="translate(419.34375 0)"/>
      <use xlink:href="#TimesNewRomanPSMT-4a" transform="translate(463.734375 0)"/>
     </g>
    </g>
   </g>
   <g id="matplotlib.axis_2">
    <g id="ytick_1">
     <g id="line2d_8">
      <path d="M 47.551953 209.151937 
L 482.791953 209.151937 
" clip-path="url(#p8cc28edd34)" style="fill: none; stroke-dasharray: 2.22,0.96; stroke-dashoffset: 0; stroke: #718096; stroke-opacity: 0.22; stroke-width: 0.6"/>
     </g>
     <g id="line2d_9">
      <defs>
       <path id="m005b1d5eea" d="M 0 0 
L -3.5 0 
" style="stroke: #000000; stroke-width: 0.8"/>
      </defs>
      <g>
       <use xlink:href="#m005b1d5eea" x="47.551953" y="209.151937" style="stroke: #000000; stroke-width: 0.8"/>
      </g>
     </g>
     <g id="text_9">
      <!-- 0.000 -->
      <g transform="translate(20.301953 212.272055) scale(0.09 -0.09)">
       <defs>
        <path id="TimesNewRomanPSMT-11" d="M 800 606 
Q 947 606 1047 504 
Q 1147 403 1147 259 
Q 1147 116 1045 14 
Q 944 -88 800 -88 
Q 656 -88 554 14 
Q 453 116 453 259 
Q 453 406 554 506 
Q 656 606 800 606 
z
" transform="scale(0.015625)"/>
       </defs>
       <use xlink:href="#TimesNewRomanPSMT-13"/>
       <use xlink:href="#TimesNewRomanPSMT-11" transform="translate(50 0)"/>
       <use xlink:href="#TimesNewRomanPSMT-13" transform="translate(75 0)"/>
       <use xlink:href="#TimesNewRomanPSMT-13" transform="translate(125 0)"/>
       <use xlink:href="#TimesNewRomanPSMT-13" transform="translate(175 0)"/>
      </g>
     </g>
    </g>
    <g id="ytick_2">
     <g id="line2d_10">
      <path d="M 47.551953 184.947116 
L 482.791953 184.947116 
" clip-path="url(#p8cc28edd34)" style="fill: none; stroke-dasharray: 2.22,0.96; stroke-dashoffset: 0; stroke: #718096; stroke-opacity: 0.22; stroke-width: 0.6"/>
     </g>
     <g id="line2d_11">
      <g>
       <use xlink:href="#m005b1d5eea" x="47.551953" y="184.947116" style="stroke: #000000; stroke-width: 0.8"/>
      </g>
     </g>
     <g id="text_10">
      <!-- 0.025 -->
      <g transform="translate(20.301953 188.067233) scale(0.09 -0.09)">
       <use xlink:href="#TimesNewRomanPSMT-13"/>
       <use xlink:href="#TimesNewRomanPSMT-11" transform="translate(50 0)"/>
       <use xlink:href="#TimesNewRomanPSMT-13" transform="translate(75 0)"/>
       <use xlink:href="#TimesNewRomanPSMT-15" transform="translate(125 0)"/>
       <use xlink:href="#TimesNewRomanPSMT-18" transform="translate(175 0)"/>
      </g>
     </g>
    </g>
    <g id="ytick_3">
     <g id="line2d_12">
      <path d="M 47.551953 160.742294 
L 482.791953 160.742294 
" clip-path="url(#p8cc28edd34)" style="fill: none; stroke-dasharray: 2.22,0.96; stroke-dashoffset: 0; stroke: #718096; stroke-opacity: 0.22; stroke-width: 0.6"/>
     </g>
     <g id="line2d_13">
      <g>
       <use xlink:href="#m005b1d5eea" x="47.551953" y="160.742294" style="stroke: #000000; stroke-width: 0.8"/>
      </g>
     </g>
     <g id="text_11">
      <!-- 0.050 -->
      <g transform="translate(20.301953 163.862411) scale(0.09 -0.09)">
       <use xlink:href="#TimesNewRomanPSMT-13"/>
       <use xlink:href="#TimesNewRomanPSMT-11" transform="translate(50 0)"/>
       <use xlink:href="#TimesNewRomanPSMT-13" transform="translate(75 0)"/>
       <use xlink:href="#TimesNewRomanPSMT-18" transform="translate(125 0)"/>
       <use xlink:href="#TimesNewRomanPSMT-13" transform="translate(175 0)"/>
      </g>
     </g>
    </g>
    <g id="ytick_4">
     <g id="line2d_14">
      <path d="M 47.551953 136.537472 
L 482.791953 136.537472 
" clip-path="url(#p8cc28edd34)" style="fill: none; stroke-dasharray: 2.22,0.96; stroke-dashoffset: 0; stroke: #718096; stroke-opacity: 0.22; stroke-width: 0.6"/>
     </g>
     <g id="line2d_15">
      <g>
       <use xlink:href="#m005b1d5eea" x="47.551953" y="136.537472" style="stroke: #000000; stroke-width: 0.8"/>
      </g>
     </g>
     <g id="text_12">
      <!-- 0.075 -->
      <g transform="translate(20.301953 139.657589) scale(0.09 -0.09)">
       <defs>
        <path id="TimesNewRomanPSMT-1a" d="M 644 4238 
L 2916 4238 
L 2916 4119 
L 1503 -88 
L 1153 -88 
L 2419 3728 
L 1253 3728 
Q 900 3728 750 3644 
Q 488 3500 328 3200 
L 238 3234 
L 644 4238 
z
" transform="scale(0.015625)"/>
       </defs>
       <use xlink:href="#TimesNewRomanPSMT-13"/>
       <use xlink:href="#TimesNewRomanPSMT-11" transform="translate(50 0)"/>
       <use xlink:href="#TimesNewRomanPSMT-13" transform="translate(75 0)"/>
       <use xlink:href="#TimesNewRomanPSMT-1a" transform="translate(125 0)"/>
       <use xlink:href="#TimesNewRomanPSMT-18" transform="translate(175 0)"/>
      </g>
     </g>
    </g>
    <g id="ytick_5">
     <g id="line2d_16">
      <path d="M 47.551953 112.33265 
L 482.791953 112.33265 
" clip-path="url(#p8cc28edd34)" style="fill: none; stroke-dasharray: 2.22,0.96; stroke-dashoffset: 0; stroke: #718096; stroke-opacity: 0.22; stroke-width: 0.6"/>
     </g>
     <g id="line2d_17">
      <g>
       <use xlink:href="#m005b1d5eea" x="47.551953" y="112.33265" style="stroke: #000000; stroke-width: 0.8"/>
      </g>
     </g>
     <g id="text_13">
      <!-- 0.100 -->
      <g transform="translate(20.301953 115.452767) scale(0.09 -0.09)">
       <use xlink:href="#TimesNewRomanPSMT-13"/>
       <use xlink:href="#TimesNewRomanPSMT-11" transform="translate(50 0)"/>
       <use xlink:href="#TimesNewRomanPSMT-14" transform="translate(75 0)"/>
       <use xlink:href="#TimesNewRomanPSMT-13" transform="translate(125 0)"/>
       <use xlink:href="#TimesNewRomanPSMT-13" transform="translate(175 0)"/>
      </g>
     </g>
    </g>
    <g id="ytick_6">
     <g id="line2d_18">
      <path d="M 47.551953 88.127828 
L 482.791953 88.127828 
" clip-path="url(#p8cc28edd34)" style="fill: none; stroke-dasharray: 2.22,0.96; stroke-dashoffset: 0; stroke: #718096; stroke-opacity: 0.22; stroke-width: 0.6"/>
     </g>
     <g id="line2d_19">
      <g>
       <use xlink:href="#m005b1d5eea" x="47.551953" y="88.127828" style="stroke: #000000; stroke-width: 0.8"/>
      </g>
     </g>
     <g id="text_14">
      <!-- 0.125 -->
      <g transform="translate(20.301953 91.247945) scale(0.09 -0.09)">
       <use xlink:href="#TimesNewRomanPSMT-13"/>
       <use xlink:href="#TimesNewRomanPSMT-11" transform="translate(50 0)"/>
       <use xlink:href="#TimesNewRomanPSMT-14" transform="translate(75 0)"/>
       <use xlink:href="#TimesNewRomanPSMT-15" transform="translate(125 0)"/>
       <use xlink:href="#TimesNewRomanPSMT-18" transform="translate(175 0)"/>
      </g>
     </g>
    </g>
    <g id="ytick_7">
     <g id="line2d_20">
      <path d="M 47.551953 63.923006 
L 482.791953 63.923006 
" clip-path="url(#p8cc28edd34)" style="fill: none; stroke-dasharray: 2.22,0.96; stroke-dashoffset: 0; stroke: #718096; stroke-opacity: 0.22; stroke-width: 0.6"/>
     </g>
     <g id="line2d_21">
      <g>
       <use xlink:href="#m005b1d5eea" x="47.551953" y="63.923006" style="stroke: #000000; stroke-width: 0.8"/>
      </g>
     </g>
     <g id="text_15">
      <!-- 0.150 -->
      <g transform="translate(20.301953 67.043124) scale(0.09 -0.09)">
       <use xlink:href="#TimesNewRomanPSMT-13"/>
       <use xlink:href="#TimesNewRomanPSMT-11" transform="translate(50 0)"/>
       <use xlink:href="#TimesNewRomanPSMT-14" transform="translate(75 0)"/>
       <use xlink:href="#TimesNewRomanPSMT-18" transform="translate(125 0)"/>
       <use xlink:href="#TimesNewRomanPSMT-13" transform="translate(175 0)"/>
      </g>
     </g>
    </g>
    <g id="ytick_8">
     <g id="line2d_22">
      <path d="M 47.551953 39.718185 
L 482.791953 39.718185 
" clip-path="url(#p8cc28edd34)" style="fill: none; stroke-dasharray: 2.22,0.96; stroke-dashoffset: 0; stroke: #718096; stroke-opacity: 0.22; stroke-width: 0.6"/>
     </g>
     <g id="line2d_23">
      <g>
       <use xlink:href="#m005b1d5eea" x="47.551953" y="39.718185" style="stroke: #000000; stroke-width: 0.8"/>
      </g>
     </g>
     <g id="text_16">
      <!-- 0.175 -->
      <g transform="translate(20.301953 42.838302) scale(0.09 -0.09)">
       <use xlink:href="#TimesNewRomanPSMT-13"/>
       <use xlink:href="#TimesNewRomanPSMT-11" transform="translate(50 0)"/>
       <use xlink:href="#TimesNewRomanPSMT-14" transform="translate(75 0)"/>
       <use xlink:href="#TimesNewRomanPSMT-1a" transform="translate(125 0)"/>
       <use xlink:href="#TimesNewRomanPSMT-18" transform="translate(175 0)"/>
      </g>
     </g>
    </g>
    <g id="text_17">
     <!-- weight -->
     <g style="fill: #1a202c" transform="translate(14.14375 128.512531) rotate(-90) scale(0.1 -0.1)">
      <defs>
       <path id="TimesNewRomanPSMT-5a" d="M 41 2863 
L 1241 2863 
L 1241 2747 
Q 1075 2734 1023 2687 
Q 972 2641 972 2553 
Q 972 2456 1025 2319 
L 1638 672 
L 2253 2013 
L 2091 2434 
Q 2016 2622 1894 2694 
Q 1825 2738 1638 2747 
L 1638 2863 
L 3000 2863 
L 3000 2747 
Q 2775 2738 2681 2666 
Q 2619 2616 2619 2506 
Q 2619 2444 2644 2378 
L 3294 734 
L 3897 2319 
Q 3959 2488 3959 2588 
Q 3959 2647 3898 2694 
Q 3838 2741 3659 2747 
L 3659 2863 
L 4563 2863 
L 4563 2747 
Q 4291 2706 4163 2378 
L 3206 -88 
L 3078 -88 
L 2363 1741 
L 1528 -88 
L 1413 -88 
L 494 2319 
Q 403 2547 315 2626 
Q 228 2706 41 2747 
L 41 2863 
z
" transform="scale(0.015625)"/>
       <path id="TimesNewRomanPSMT-48" d="M 681 1784 
Q 678 1147 991 784 
Q 1303 422 1725 422 
Q 2006 422 2214 576 
Q 2422 731 2563 1106 
L 2659 1044 
Q 2594 616 2278 264 
Q 1963 -88 1488 -88 
Q 972 -88 605 314 
Q 238 716 238 1394 
Q 238 2128 614 2539 
Q 991 2950 1559 2950 
Q 2041 2950 2350 2633 
Q 2659 2316 2659 1784 
L 681 1784 
z
M 681 1966 
L 2006 1966 
Q 1991 2241 1941 2353 
Q 1863 2528 1708 2628 
Q 1553 2728 1384 2728 
Q 1125 2728 920 2526 
Q 716 2325 681 1966 
z
" transform="scale(0.015625)"/>
       <path id="TimesNewRomanPSMT-4c" d="M 928 4444 
Q 1059 4444 1151 4351 
Q 1244 4259 1244 4128 
Q 1244 3997 1151 3903 
Q 1059 3809 928 3809 
Q 797 3809 703 3903 
Q 609 3997 609 4128 
Q 609 4259 701 4351 
Q 794 4444 928 4444 
z
M 1188 2947 
L 1188 647 
Q 1188 378 1227 289 
Q 1266 200 1342 156 
Q 1419 113 1622 113 
L 1622 0 
L 231 0 
L 231 113 
Q 441 113 512 153 
Q 584 194 626 287 
Q 669 381 669 647 
L 669 1750 
Q 669 2216 641 2353 
Q 619 2453 572 2492 
Q 525 2531 444 2531 
Q 356 2531 231 2484 
L 188 2597 
L 1050 2947 
L 1188 2947 
z
" transform="scale(0.015625)"/>
       <path id="TimesNewRomanPSMT-4b" d="M 1041 4444 
L 1041 2350 
Q 1388 2731 1591 2839 
Q 1794 2947 1997 2947 
Q 2241 2947 2416 2812 
Q 2591 2678 2675 2391 
Q 2734 2191 2734 1659 
L 2734 647 
Q 2734 375 2778 275 
Q 2809 200 2884 156 
Q 2959 113 3159 113 
L 3159 0 
L 1753 0 
L 1753 113 
L 1819 113 
Q 2019 113 2097 173 
Q 2175 234 2206 353 
Q 2216 403 2216 647 
L 2216 1659 
Q 2216 2128 2167 2275 
Q 2119 2422 2012 2495 
Q 1906 2569 1756 2569 
Q 1603 2569 1437 2487 
Q 1272 2406 1041 2159 
L 1041 647 
Q 1041 353 1073 281 
Q 1106 209 1195 161 
Q 1284 113 1503 113 
L 1503 0 
L 84 0 
L 84 113 
Q 275 113 384 172 
Q 447 203 484 290 
Q 522 378 522 647 
L 522 3238 
Q 522 3728 498 3840 
Q 475 3953 426 3993 
Q 378 4034 297 4034 
Q 231 4034 84 3984 
L 41 4094 
L 897 4444 
L 1041 4444 
z
" transform="scale(0.015625)"/>
      </defs>
      <use xlink:href="#TimesNewRomanPSMT-5a"/>
      <use xlink:href="#TimesNewRomanPSMT-48" transform="translate(72.21875 0)"/>
      <use xlink:href="#TimesNewRomanPSMT-4c" transform="translate(116.609375 0)"/>
      <use xlink:href="#TimesNewRomanPSMT-4a" transform="translate(144.390625 0)"/>
      <use xlink:href="#TimesNewRomanPSMT-4b" transform="translate(194.390625 0)"/>
      <use xlink:href="#TimesNewRomanPSMT-57" transform="translate(244.390625 0)"/>
     </g>
    </g>
   </g>
   <g id="patch_3">
    <path d="M 67.335589 209.151937 
L 107.613652 209.151937 
L 107.613652 52.071937 
L 67.335589 52.071937 
z
" clip-path="url(#p8cc28edd34)" style="fill: #2c5282; stroke: #1a202c; stroke-width: 0.65; stroke-linejoin: miter"/>
   </g>
   <g id="patch_4">
    <path d="M 126.568034 209.151937 
L 166.846096 209.151937 
L 166.846096 73.149353 
L 126.568034 73.149353 
z
" clip-path="url(#p8cc28edd34)" style="fill: #2c5282; stroke: #1a202c; stroke-width: 0.65; stroke-linejoin: miter"/>
   </g>
   <g id="patch_5">
    <path d="M 185.800478 209.151937 
L 226.07854 209.151937 
L 226.07854 76.02791 
L 185.800478 76.02791 
z
" clip-path="url(#p8cc28edd34)" style="fill: #2c5282; stroke: #1a202c; stroke-width: 0.65; stroke-linejoin: miter"/>
   </g>
   <g id="patch_6">
    <path d="M 245.032922 209.151937 
L 285.310984 209.151937 
L 285.310984 67.915006 
L 245.032922 67.915006 
z
" clip-path="url(#p8cc28edd34)" style="fill: #2c5282; stroke: #1a202c; stroke-width: 0.65; stroke-linejoin: miter"/>
   </g>
   <g id="patch_7">
    <path d="M 304.265366 209.151937 
L 344.543428 209.151937 
L 344.543428 77.832796 
L 304.265366 77.832796 
z
" clip-path="url(#p8cc28edd34)" style="fill: #2c5282; stroke: #1a202c; stroke-width: 0.65; stroke-linejoin: miter"/>
   </g>
   <g id="patch_8">
    <path d="M 363.497811 209.151937 
L 403.775873 209.151937 
L 403.775873 78.622281 
L 363.497811 78.622281 
z
" clip-path="url(#p8cc28edd34)" style="fill: #2c5282; stroke: #1a202c; stroke-width: 0.65; stroke-linejoin: miter"/>
   </g>
   <g id="patch_9">
    <path d="M 422.730255 209.151937 
L 463.008317 209.151937 
L 463.008317 70.25139 
L 422.730255 70.25139 
z
" clip-path="url(#p8cc28edd34)" style="fill: #2c5282; stroke: #1a202c; stroke-width: 0.65; stroke-linejoin: miter"/>
   </g>
   <g id="patch_10">
    <path d="M 47.551953 209.151937 
L 47.551953 20.655937 
" style="fill: none; stroke: #1a202c; stroke-width: 0.8; stroke-linejoin: miter; stroke-linecap: square"/>
   </g>
   <g id="patch_11">
    <path d="M 47.551953 209.151937 
L 482.791953 209.151937 
" style="fill: none; stroke: #1a202c; stroke-width: 0.8; stroke-linejoin: miter; stroke-linecap: square"/>
   </g>
   <g id="text_18">
    <!-- Temporal attention attribution α_t -->
    <g style="fill: #1a202c" transform="translate(183.933516 14.655937) scale(0.11 -0.11)">
     <defs>
      <path id="TimesNewRomanPS-BoldMT-37" d="M 4038 4238 
L 4038 3091 
L 3925 3091 
Q 3825 3488 3703 3661 
Q 3581 3834 3369 3938 
Q 3250 3994 2953 3994 
L 2638 3994 
L 2638 725 
Q 2638 400 2673 319 
Q 2709 238 2814 177 
Q 2919 116 3100 116 
L 3241 116 
L 3241 0 
L 1022 0 
L 1022 116 
L 1163 116 
Q 1347 116 1459 181 
Q 1541 225 1588 331 
Q 1622 406 1622 725 
L 1622 3994 
L 1316 3994 
Q 888 3994 694 3813 
Q 422 3559 350 3091 
L 231 3091 
L 231 4238 
L 4038 4238 
z
" transform="scale(0.015625)"/>
      <path id="TimesNewRomanPS-BoldMT-48" d="M 2691 1566 
L 1088 1566 
Q 1116 984 1397 647 
Q 1613 388 1916 388 
Q 2103 388 2256 492 
Q 2409 597 2584 869 
L 2691 800 
Q 2453 316 2165 114 
Q 1878 -88 1500 -88 
Q 850 -88 516 413 
Q 247 816 247 1413 
Q 247 2144 642 2576 
Q 1038 3009 1569 3009 
Q 2013 3009 2339 2645 
Q 2666 2281 2691 1566 
z
M 1922 1775 
Q 1922 2278 1867 2465 
Q 1813 2653 1697 2750 
Q 1631 2806 1522 2806 
Q 1359 2806 1256 2647 
Q 1072 2369 1072 1884 
L 1072 1775 
L 1922 1775 
z
" transform="scale(0.015625)"/>
      <path id="TimesNewRomanPS-BoldMT-50" d="M 1428 2922 
L 1428 2538 
Q 1669 2800 1873 2904 
Q 2078 3009 2322 3009 
Q 2603 3009 2793 2878 
Q 2984 2747 3088 2478 
Q 3338 2759 3567 2884 
Q 3797 3009 4047 3009 
Q 4350 3009 4529 2870 
Q 4709 2731 4779 2517 
Q 4850 2303 4850 1834 
L 4850 638 
Q 4850 300 4911 219 
Q 4972 138 5166 113 
L 5166 0 
L 3656 0 
L 3656 113 
Q 3834 128 3919 250 
Q 3975 334 3975 638 
L 3975 1894 
Q 3975 2284 3944 2390 
Q 3913 2497 3845 2548 
Q 3778 2600 3688 2600 
Q 3553 2600 3415 2501 
Q 3278 2403 3138 2206 
L 3138 638 
Q 3138 322 3191 241 
Q 3263 125 3466 113 
L 3466 0 
L 1953 0 
L 1953 113 
Q 2075 119 2145 173 
Q 2216 228 2239 304 
Q 2263 381 2263 638 
L 2263 1894 
Q 2263 2291 2231 2391 
Q 2200 2491 2126 2547 
Q 2053 2603 1969 2603 
Q 1844 2603 1741 2538 
Q 1594 2441 1428 2206 
L 1428 638 
Q 1428 328 1489 229 
Q 1550 131 1744 113 
L 1744 0 
L 238 0 
L 238 113 
Q 422 131 500 231 
Q 553 300 553 638 
L 553 2288 
Q 553 2619 492 2700 
Q 431 2781 238 2806 
L 238 2922 
L 1428 2922 
z
" transform="scale(0.015625)"/>
      <path id="TimesNewRomanPS-BoldMT-53" d="M 1347 297 
L 1347 -791 
Q 1347 -1016 1383 -1097 
Q 1419 -1178 1494 -1215 
Q 1569 -1253 1788 -1253 
L 1788 -1369 
L 122 -1369 
L 122 -1253 
Q 316 -1247 409 -1144 
Q 472 -1072 472 -772 
L 472 2313 
Q 472 2622 400 2708 
Q 328 2794 122 2806 
L 122 2922 
L 1347 2922 
L 1347 2538 
Q 1500 2763 1659 2863 
Q 1888 3009 2156 3009 
Q 2478 3009 2742 2806 
Q 3006 2603 3143 2245 
Q 3281 1888 3281 1475 
Q 3281 1031 3139 664 
Q 2997 297 2726 104 
Q 2456 -88 2125 -88 
Q 1884 -88 1675 19 
Q 1519 100 1347 297 
z
M 1347 613 
Q 1616 231 1922 231 
Q 2091 231 2200 409 
Q 2363 672 2363 1409 
Q 2363 2166 2184 2444 
Q 2066 2628 1866 2628 
Q 1550 2628 1347 2172 
L 1347 613 
z
" transform="scale(0.015625)"/>
      <path id="TimesNewRomanPS-BoldMT-52" d="M 1594 3009 
Q 1975 3009 2303 2812 
Q 2631 2616 2801 2253 
Q 2972 1891 2972 1459 
Q 2972 838 2656 419 
Q 2275 -88 1603 -88 
Q 944 -88 587 375 
Q 231 838 231 1447 
Q 231 2075 595 2542 
Q 959 3009 1594 3009 
z
M 1606 2788 
Q 1447 2788 1333 2667 
Q 1219 2547 1183 2192 
Q 1147 1838 1147 1206 
Q 1147 872 1191 581 
Q 1225 359 1337 243 
Q 1450 128 1594 128 
Q 1734 128 1828 206 
Q 1950 313 1991 503 
Q 2053 800 2053 1703 
Q 2053 2234 1993 2432 
Q 1934 2631 1819 2722 
Q 1738 2788 1606 2788 
z
" transform="scale(0.015625)"/>
      <path id="TimesNewRomanPS-BoldMT-55" d="M 1428 2922 
L 1428 2259 
Q 1719 2713 1937 2861 
Q 2156 3009 2359 3009 
Q 2534 3009 2639 2901 
Q 2744 2794 2744 2597 
Q 2744 2388 2642 2272 
Q 2541 2156 2397 2156 
Q 2231 2156 2109 2262 
Q 1988 2369 1966 2381 
Q 1934 2400 1894 2400 
Q 1803 2400 1722 2331 
Q 1594 2225 1528 2028 
Q 1428 1725 1428 1359 
L 1428 688 
L 1431 513 
Q 1431 334 1453 284 
Q 1491 200 1564 161 
Q 1638 122 1813 113 
L 1813 0 
L 234 0 
L 234 113 
Q 425 128 492 217 
Q 559 306 559 688 
L 559 2303 
Q 559 2553 534 2622 
Q 503 2709 443 2750 
Q 384 2791 234 2806 
L 234 2922 
L 1428 2922 
z
" transform="scale(0.015625)"/>
      <path id="TimesNewRomanPS-BoldMT-44" d="M 1828 431 
Q 1294 -41 869 -41 
Q 619 -41 453 123 
Q 288 288 288 534 
Q 288 869 575 1136 
Q 863 1403 1828 1847 
L 1828 2141 
Q 1828 2472 1792 2558 
Q 1756 2644 1656 2708 
Q 1556 2772 1431 2772 
Q 1228 2772 1097 2681 
Q 1016 2625 1016 2550 
Q 1016 2484 1103 2388 
Q 1222 2253 1222 2128 
Q 1222 1975 1108 1867 
Q 994 1759 809 1759 
Q 613 1759 480 1878 
Q 347 1997 347 2156 
Q 347 2381 525 2586 
Q 703 2791 1022 2900 
Q 1341 3009 1684 3009 
Q 2100 3009 2342 2832 
Q 2584 2656 2656 2450 
Q 2700 2319 2700 1847 
L 2700 713 
Q 2700 513 2715 461 
Q 2731 409 2762 384 
Q 2794 359 2834 359 
Q 2916 359 3000 475 
L 3094 400 
Q 2938 169 2770 64 
Q 2603 -41 2391 -41 
Q 2141 -41 2000 76 
Q 1859 194 1828 431 
z
M 1828 659 
L 1828 1638 
Q 1450 1416 1266 1163 
Q 1144 994 1144 822 
Q 1144 678 1247 569 
Q 1325 484 1466 484 
Q 1622 484 1828 659 
z
" transform="scale(0.015625)"/>
      <path id="TimesNewRomanPS-BoldMT-4f" d="M 1359 4238 
L 1359 606 
Q 1359 297 1431 211 
Q 1503 125 1713 113 
L 1713 0 
L 134 0 
L 134 113 
Q 328 119 422 225 
Q 484 297 484 606 
L 484 3631 
Q 484 3938 412 4023 
Q 341 4109 134 4122 
L 134 4238 
L 1359 4238 
z
" transform="scale(0.015625)"/>
      <path id="TimesNewRomanPS-BoldMT-3" transform="scale(0.015625)"/>
      <path id="TimesNewRomanPS-BoldMT-57" d="M 1375 3991 
L 1375 2922 
L 2069 2922 
L 2069 2613 
L 1375 2613 
L 1375 809 
Q 1375 556 1398 482 
Q 1422 409 1481 364 
Q 1541 319 1591 319 
Q 1794 319 1975 628 
L 2069 559 
Q 1816 -41 1247 -41 
Q 969 -41 776 114 
Q 584 269 531 459 
Q 500 566 500 1034 
L 500 2613 
L 119 2613 
L 119 2722 
Q 513 3000 789 3306 
Q 1066 3613 1272 3991 
L 1375 3991 
z
" transform="scale(0.015625)"/>
      <path id="TimesNewRomanPS-BoldMT-51" d="M 1409 2922 
L 1409 2544 
Q 1634 2788 1840 2898 
Q 2047 3009 2284 3009 
Q 2569 3009 2756 2851 
Q 2944 2694 3006 2459 
Q 3056 2281 3056 1775 
L 3056 638 
Q 3056 300 3117 217 
Q 3178 134 3372 113 
L 3372 0 
L 1894 0 
L 1894 113 
Q 2059 134 2131 250 
Q 2181 328 2181 638 
L 2181 1938 
Q 2181 2297 2153 2390 
Q 2125 2484 2058 2536 
Q 1991 2588 1909 2588 
Q 1641 2588 1409 2203 
L 1409 638 
Q 1409 309 1470 221 
Q 1531 134 1697 113 
L 1697 0 
L 219 0 
L 219 113 
Q 403 131 481 231 
Q 534 300 534 638 
L 534 2288 
Q 534 2619 473 2700 
Q 413 2781 219 2806 
L 219 2922 
L 1409 2922 
z
" transform="scale(0.015625)"/>
      <path id="TimesNewRomanPS-BoldMT-4c" d="M 919 4338 
Q 1122 4338 1262 4195 
Q 1403 4053 1403 3853 
Q 1403 3653 1261 3512 
Q 1119 3372 919 3372 
Q 719 3372 578 3512 
Q 438 3653 438 3853 
Q 438 4053 578 4195 
Q 719 4338 919 4338 
z
M 1356 2922 
L 1356 606 
Q 1356 297 1428 211 
Q 1500 125 1709 113 
L 1709 0 
L 131 0 
L 131 113 
Q 325 119 419 225 
Q 481 297 481 606 
L 481 2313 
Q 481 2622 409 2708 
Q 338 2794 131 2806 
L 131 2922 
L 1356 2922 
z
" transform="scale(0.015625)"/>
      <path id="TimesNewRomanPS-BoldMT-45" d="M 1347 4238 
L 1347 2628 
Q 1716 3009 2153 3009 
Q 2453 3009 2718 2832 
Q 2984 2656 3134 2331 
Q 3284 2006 3284 1581 
Q 3284 1103 3093 712 
Q 2903 322 2584 117 
Q 2266 -88 1856 -88 
Q 1619 -88 1434 -12 
Q 1250 63 1072 231 
L 588 -84 
L 481 -84 
L 481 3631 
Q 481 3884 459 3944 
Q 428 4031 361 4073 
Q 294 4116 134 4122 
L 134 4238 
L 1347 4238 
z
M 1347 2350 
L 1347 1050 
Q 1347 653 1366 544 
Q 1397 359 1515 245 
Q 1634 131 1819 131 
Q 1978 131 2092 222 
Q 2206 313 2282 581 
Q 2359 850 2359 1550 
Q 2359 2222 2191 2472 
Q 2069 2653 1863 2653 
Q 1594 2653 1347 2350 
z
" transform="scale(0.015625)"/>
      <path id="TimesNewRomanPS-BoldMT-58" d="M 3038 2922 
L 3038 634 
Q 3038 300 3100 217 
Q 3163 134 3353 113 
L 3353 0 
L 2163 0 
L 2163 391 
Q 1953 141 1743 26 
Q 1534 -88 1275 -88 
Q 1028 -88 836 64 
Q 644 216 578 419 
Q 513 622 513 1128 
L 513 2288 
Q 513 2619 452 2700 
Q 391 2781 197 2806 
L 197 2922 
L 1388 2922 
L 1388 925 
Q 1388 613 1417 522 
Q 1447 431 1511 384 
Q 1575 338 1659 338 
Q 1772 338 1863 397 
Q 1988 478 2163 725 
L 2163 2288 
Q 2163 2619 2102 2700 
Q 2041 2781 1847 2806 
L 1847 2922 
L 3038 2922 
z
" transform="scale(0.015625)"/>
      <path id="TimesNewRomanPS-BoldMT-12e" d="M 2397 2922 
L 3253 2922 
L 2956 1541 
Q 2850 1041 2750 775 
Q 2778 609 2867 500 
Q 2956 391 3050 391 
Q 3303 391 3319 853 
L 3434 853 
Q 3428 300 3314 106 
Q 3200 -88 3034 -88 
Q 2747 -88 2628 541 
Q 2281 -88 1559 -88 
Q 981 -88 626 315 
Q 272 719 272 1359 
Q 272 2028 623 2518 
Q 975 3009 1475 3009 
Q 1731 3009 1909 2845 
Q 2088 2681 2263 2297 
L 2397 2922 
z
M 2178 1909 
Q 2000 2425 1867 2592 
Q 1734 2759 1556 2759 
Q 1391 2759 1291 2542 
Q 1191 2325 1191 1275 
Q 1191 672 1255 401 
Q 1319 131 1503 131 
Q 1628 131 1745 275 
Q 1863 419 2003 1081 
L 2178 1909 
z
" transform="scale(0.015625)"/>
      <path id="TimesNewRomanPS-BoldMT-42" d="M -59 -972 
L 3259 -972 
L 3259 -1381 
L -59 -1381 
L -59 -972 
z
" transform="scale(0.015625)"/>
     </defs>
     <use xlink:href="#TimesNewRomanPS-BoldMT-37"/>
     <use xlink:href="#TimesNewRomanPS-BoldMT-48" transform="translate(57.53125 0)"/>
     <use xlink:href="#TimesNewRomanPS-BoldMT-50" transform="translate(101.921875 0)"/>
     <use xlink:href="#TimesNewRomanPS-BoldMT-53" transform="translate(185.21875 0)"/>
     <use xlink:href="#TimesNewRomanPS-BoldMT-52" transform="translate(240.828125 0)"/>
     <use xlink:href="#TimesNewRomanPS-BoldMT-55" transform="translate(290.828125 0)"/>
     <use xlink:href="#TimesNewRomanPS-BoldMT-44" transform="translate(335.21875 0)"/>
     <use xlink:href="#TimesNewRomanPS-BoldMT-4f" transform="translate(385.21875 0)"/>
     <use xlink:href="#TimesNewRomanPS-BoldMT-3" transform="translate(413 0)"/>
     <use xlink:href="#TimesNewRomanPS-BoldMT-44" transform="translate(438 0)"/>
     <use xlink:href="#TimesNewRomanPS-BoldMT-57" transform="translate(488 0)"/>
     <use xlink:href="#TimesNewRomanPS-BoldMT-57" transform="translate(521.296875 0)"/>
     <use xlink:href="#TimesNewRomanPS-BoldMT-48" transform="translate(554.59375 0)"/>
     <use xlink:href="#TimesNewRomanPS-BoldMT-51" transform="translate(598.984375 0)"/>
     <use xlink:href="#TimesNewRomanPS-BoldMT-57" transform="translate(654.59375 0)"/>
     <use xlink:href="#TimesNewRomanPS-BoldMT-4c" transform="translate(687.890625 0)"/>
     <use xlink:href="#TimesNewRomanPS-BoldMT-52" transform="translate(715.671875 0)"/>
     <use xlink:href="#TimesNewRomanPS-BoldMT-51" transform="translate(765.671875 0)"/>
     <use xlink:href="#TimesNewRomanPS-BoldMT-3" transform="translate(821.28125 0)"/>
     <use xlink:href="#TimesNewRomanPS-BoldMT-44" transform="translate(846.28125 0)"/>
     <use xlink:href="#TimesNewRomanPS-BoldMT-57" transform="translate(896.28125 0)"/>
     <use xlink:href="#TimesNewRomanPS-BoldMT-57" transform="translate(929.578125 0)"/>
     <use xlink:href="#TimesNewRomanPS-BoldMT-55" transform="translate(962.875 0)"/>
     <use xlink:href="#TimesNewRomanPS-BoldMT-4c" transform="translate(1007.265625 0)"/>
     <use xlink:href="#TimesNewRomanPS-BoldMT-45" transform="translate(1035.046875 0)"/>
     <use xlink:href="#TimesNewRomanPS-BoldMT-58" transform="translate(1090.65625 0)"/>
     <use xlink:href="#TimesNewRomanPS-BoldMT-57" transform="translate(1146.265625 0)"/>
     <use xlink:href="#TimesNewRomanPS-BoldMT-4c" transform="translate(1179.5625 0)"/>
     <use xlink:href="#TimesNewRomanPS-BoldMT-52" transform="translate(1207.34375 0)"/>
     <use xlink:href="#TimesNewRomanPS-BoldMT-51" transform="translate(1257.34375 0)"/>
     <use xlink:href="#TimesNewRomanPS-BoldMT-3" transform="translate(1312.953125 0)"/>
     <use xlink:href="#TimesNewRomanPS-BoldMT-12e" transform="translate(1337.953125 0)"/>
     <use xlink:href="#TimesNewRomanPS-BoldMT-42" transform="translate(1393.765625 0)"/>
     <use xlink:href="#TimesNewRomanPS-BoldMT-57" transform="translate(1443.765625 0)"/>
    </g>
   </g>
  </g>
 </g>
 <defs>
  <clipPath id="p8cc28edd34">
   <rect x="47.551953" y="20.655937" width="435.24" height="188.496"/>
  </clipPath>
 </defs>
</svg>
